M48
INCH,TZ
T1C0.0157
T2C0.0400
T3C0.0433
T4C0.0504
T5C0.0512
%
G90
G05
T1
X38440Y-46110
X39220Y-32190
X39320Y-37440
X39320Y-46240
X39440Y-44510
X41290Y-47270
X42190Y-28010
X43510Y-45640
X43950Y-46050
X43950Y-52450
X44060Y-47100
X45150Y-49290
X45470Y-43490
X45480Y-43060
X45650Y-42550
X46420Y-40540
X46420Y-40940
X46560Y-45210
X46720Y-36890
X46720Y-37640
X46760Y-44300
X47330Y-52450
X47470Y-46690
X48410Y-42350
X49860Y-36000
X49890Y-46450
X50060Y-45940
X50070Y-43570
X50070Y-43990
X50350Y-44570
X50660Y-37770
X51180Y-42870
X51310Y-45000
X52770Y-49090
X53040Y-39400
X53170Y-39990
X53520Y-40340
X54550Y-49090
X55720Y-37290
X56890Y-28050
X58720Y-40290
X59570Y-36840
T2
X43944Y-30900
X44944Y-30900
X45944Y-30900
X46944Y-30900
X47544Y-49900
X47944Y-30900
X48544Y-49900
X48944Y-30900
X49544Y-49900
X49944Y-30900
X50544Y-49900
X50944Y-30900
X51544Y-49900
X51944Y-30900
X52544Y-49900
X52944Y-30900
X53544Y-49900
X54544Y-30900
X54544Y-49900
X55544Y-30900
X56544Y-30900
X56544Y-49900
X57544Y-30900
X57544Y-49900
X58544Y-30900
X58544Y-49900
X59544Y-30900
X59544Y-49900
X60544Y-30900
X60544Y-49900
X61544Y-30900
X61544Y-49900
X61594Y-38900
X61594Y-39900
X61594Y-40900
X62544Y-49900
X62594Y-38900
X62594Y-39900
X62594Y-40900
X63544Y-30900
X63544Y-49900
X64544Y-30900
X65544Y-30900
X65544Y-49900
X66544Y-30900
X66544Y-49900
X67544Y-30900
X67544Y-49900
X68544Y-30900
X68544Y-49900
X69544Y-30900
X69544Y-49900
X70544Y-30900
X70544Y-49900
X71544Y-49900
X72544Y-49900
X73544Y-30900
X73544Y-31900
X73544Y-32900
X73544Y-33900
X73544Y-34900
X73544Y-35900
X73544Y-36900
X73544Y-37900
X73544Y-38900
X73544Y-39900
X73544Y-40900
X73544Y-41900
X73544Y-42900
X73544Y-43900
X73544Y-44900
X73544Y-45900
X73544Y-46900
X73544Y-47900
X74544Y-30900
X74544Y-31900
X74544Y-32900
X74544Y-33900
X74544Y-34900
X74544Y-35900
X74544Y-36900
X74544Y-37900
X74544Y-38900
X74544Y-39900
X74544Y-40900
X74544Y-41900
X74544Y-42900
X74544Y-43900
X74544Y-44900
X74544Y-45900
X74544Y-46900
X74544Y-47900
T3
X43260Y-28020
X44260Y-28020
X45210Y-52450
X45260Y-28020
X46210Y-52450
X46260Y-28020
X47260Y-28020
X48260Y-28020
X50820Y-28040
X51820Y-28040
X52820Y-28040
X53820Y-28040
X54110Y-33450
X54110Y-34450
X54110Y-35450
X54820Y-28040
X55820Y-28040
X57350Y-33460
X57350Y-34460
X57350Y-35460
X58500Y-52440
X58680Y-28058
X59500Y-52440
X59680Y-28058
X60680Y-28058
X61580Y-52460
X61680Y-28058
X62580Y-52460
X62680Y-28058
X63580Y-52460
X63680Y-28058
X65542Y-52460
X66542Y-52460
X67542Y-52460
X68542Y-52460
T4
X53300Y-45600
X53300Y-46600
X53300Y-47600
T5
X39200Y-33700
X39200Y-35669
X39297Y-38816
X39297Y-40784
T0
M30
