G04 #@! TF.GenerationSoftware,KiCad,Pcbnew,6.0.2+dfsg-1*
G04 #@! TF.CreationDate,2024-03-01T17:34:33+01:00*
G04 #@! TF.ProjectId,controller_pcb,636f6e74-726f-46c6-9c65-725f7063622e,v01*
G04 #@! TF.SameCoordinates,Original*
G04 #@! TF.FileFunction,Legend,Top*
G04 #@! TF.FilePolarity,Positive*
%FSLAX46Y46*%
G04 Gerber Fmt 4.6, Leading zero omitted, Abs format (unit mm)*
G04 Created by KiCad (PCBNEW 6.0.2+dfsg-1) date 2024-03-01 17:34:33*
%MOMM*%
%LPD*%
G01*
G04 APERTURE LIST*
%ADD10C,0.150000*%
%ADD11C,0.300000*%
%ADD12C,0.127000*%
%ADD13C,0.254000*%
%ADD14C,0.100000*%
%ADD15C,0.200000*%
%ADD16C,0.120000*%
%ADD17C,0.050000*%
G04 APERTURE END LIST*
D10*
X166587466Y-124767885D02*
X166587466Y-124291695D01*
X166873180Y-124863123D02*
X165873180Y-124529790D01*
X166873180Y-124196457D01*
X166301752Y-123720266D02*
X166254133Y-123815504D01*
X166206514Y-123863123D01*
X166111276Y-123910742D01*
X166063657Y-123910742D01*
X165968419Y-123863123D01*
X165920800Y-123815504D01*
X165873180Y-123720266D01*
X165873180Y-123529790D01*
X165920800Y-123434552D01*
X165968419Y-123386933D01*
X166063657Y-123339314D01*
X166111276Y-123339314D01*
X166206514Y-123386933D01*
X166254133Y-123434552D01*
X166301752Y-123529790D01*
X166301752Y-123720266D01*
X166349371Y-123815504D01*
X166396990Y-123863123D01*
X166492228Y-123910742D01*
X166682704Y-123910742D01*
X166777942Y-123863123D01*
X166825561Y-123815504D01*
X166873180Y-123720266D01*
X166873180Y-123529790D01*
X166825561Y-123434552D01*
X166777942Y-123386933D01*
X166682704Y-123339314D01*
X166492228Y-123339314D01*
X166396990Y-123386933D01*
X166349371Y-123434552D01*
X166301752Y-123529790D01*
X174080466Y-124654623D02*
X174080466Y-124178433D01*
X174366180Y-124749861D02*
X173366180Y-124416528D01*
X174366180Y-124083195D01*
X174366180Y-123226052D02*
X174366180Y-123797480D01*
X174366180Y-123511766D02*
X173366180Y-123511766D01*
X173509038Y-123607004D01*
X173604276Y-123702242D01*
X173651895Y-123797480D01*
X174366180Y-122273671D02*
X174366180Y-122845100D01*
X174366180Y-122559385D02*
X173366180Y-122559385D01*
X173509038Y-122654623D01*
X173604276Y-122749861D01*
X173651895Y-122845100D01*
X158227780Y-124971038D02*
X159227780Y-124637704D01*
X158227780Y-124304371D01*
X159227780Y-123971038D02*
X158227780Y-123971038D01*
X159227780Y-123494847D02*
X158227780Y-123494847D01*
X159227780Y-122923419D01*
X158227780Y-122923419D01*
X148347180Y-125061409D02*
X149347180Y-124823314D01*
X148632895Y-124632838D01*
X149347180Y-124442361D01*
X148347180Y-124204266D01*
X149347180Y-123823314D02*
X148347180Y-123823314D01*
X148823371Y-123823314D02*
X148823371Y-123251885D01*
X149347180Y-123251885D02*
X148347180Y-123251885D01*
X149347180Y-122775695D02*
X148347180Y-122775695D01*
X148347180Y-122442361D02*
X148347180Y-121870933D01*
X149347180Y-122156647D02*
X148347180Y-122156647D01*
X148823371Y-121537600D02*
X148823371Y-121204266D01*
X149347180Y-121061409D02*
X149347180Y-121537600D01*
X148347180Y-121537600D01*
X148347180Y-121061409D01*
X169127466Y-124767885D02*
X169127466Y-124291695D01*
X169413180Y-124863123D02*
X168413180Y-124529790D01*
X169413180Y-124196457D01*
X169413180Y-123815504D02*
X169413180Y-123625028D01*
X169365561Y-123529790D01*
X169317942Y-123482171D01*
X169175085Y-123386933D01*
X168984609Y-123339314D01*
X168603657Y-123339314D01*
X168508419Y-123386933D01*
X168460800Y-123434552D01*
X168413180Y-123529790D01*
X168413180Y-123720266D01*
X168460800Y-123815504D01*
X168508419Y-123863123D01*
X168603657Y-123910742D01*
X168841752Y-123910742D01*
X168936990Y-123863123D01*
X168984609Y-123815504D01*
X169032228Y-123720266D01*
X169032228Y-123529790D01*
X168984609Y-123434552D01*
X168936990Y-123386933D01*
X168841752Y-123339314D01*
X161736066Y-124945685D02*
X161736066Y-124469495D01*
X162021780Y-125040923D02*
X161021780Y-124707590D01*
X162021780Y-124374257D01*
X161021780Y-124136161D02*
X161021780Y-123469495D01*
X162021780Y-123898066D01*
X151474466Y-124918504D02*
X151474466Y-124442314D01*
X151760180Y-125013742D02*
X150760180Y-124680409D01*
X151760180Y-124347076D01*
X151760180Y-124013742D02*
X150760180Y-124013742D01*
X151474466Y-123680409D01*
X150760180Y-123347076D01*
X151760180Y-123347076D01*
X151236371Y-122537552D02*
X151283990Y-122394695D01*
X151331609Y-122347076D01*
X151426847Y-122299457D01*
X151569704Y-122299457D01*
X151664942Y-122347076D01*
X151712561Y-122394695D01*
X151760180Y-122489933D01*
X151760180Y-122870885D01*
X150760180Y-122870885D01*
X150760180Y-122537552D01*
X150807800Y-122442314D01*
X150855419Y-122394695D01*
X150950657Y-122347076D01*
X151045895Y-122347076D01*
X151141133Y-122394695D01*
X151188752Y-122442314D01*
X151236371Y-122537552D01*
X151236371Y-122870885D01*
X151236371Y-121870885D02*
X151236371Y-121537552D01*
X151760180Y-121394695D02*
X151760180Y-121870885D01*
X150760180Y-121870885D01*
X150760180Y-121394695D01*
X151760180Y-120394695D02*
X151283990Y-120728028D01*
X151760180Y-120966123D02*
X150760180Y-120966123D01*
X150760180Y-120585171D01*
X150807800Y-120489933D01*
X150855419Y-120442314D01*
X150950657Y-120394695D01*
X151093514Y-120394695D01*
X151188752Y-120442314D01*
X151236371Y-120489933D01*
X151283990Y-120585171D01*
X151283990Y-120966123D01*
X171667466Y-124736076D02*
X171667466Y-124259885D01*
X171953180Y-124831314D02*
X170953180Y-124497980D01*
X171953180Y-124164647D01*
X171953180Y-123307504D02*
X171953180Y-123878933D01*
X171953180Y-123593219D02*
X170953180Y-123593219D01*
X171096038Y-123688457D01*
X171191276Y-123783695D01*
X171238895Y-123878933D01*
X170953180Y-122688457D02*
X170953180Y-122593219D01*
X171000800Y-122497980D01*
X171048419Y-122450361D01*
X171143657Y-122402742D01*
X171334133Y-122355123D01*
X171572228Y-122355123D01*
X171762704Y-122402742D01*
X171857942Y-122450361D01*
X171905561Y-122497980D01*
X171953180Y-122593219D01*
X171953180Y-122688457D01*
X171905561Y-122783695D01*
X171857942Y-122831314D01*
X171762704Y-122878933D01*
X171572228Y-122926552D01*
X171334133Y-122926552D01*
X171143657Y-122878933D01*
X171048419Y-122831314D01*
X171000800Y-122783695D01*
X170953180Y-122688457D01*
X156687780Y-124528104D02*
X156687780Y-125004295D01*
X155687780Y-125004295D01*
X156163971Y-124194771D02*
X156163971Y-123861438D01*
X156687780Y-123718580D02*
X156687780Y-124194771D01*
X155687780Y-124194771D01*
X155687780Y-123718580D01*
X156687780Y-123290009D02*
X155687780Y-123290009D01*
X155687780Y-123051914D01*
X155735400Y-122909057D01*
X155830638Y-122813819D01*
X155925876Y-122766200D01*
X156116352Y-122718580D01*
X156259209Y-122718580D01*
X156449685Y-122766200D01*
X156544923Y-122813819D01*
X156640161Y-122909057D01*
X156687780Y-123051914D01*
X156687780Y-123290009D01*
X156306828Y-122290009D02*
X156306828Y-121528104D01*
X156687780Y-121909057D02*
X155925876Y-121909057D01*
D11*
X159885257Y-112516000D02*
X160599542Y-112516000D01*
X159742400Y-112944571D02*
X160242400Y-111444571D01*
X160742400Y-112944571D01*
X161956685Y-112944571D02*
X161242400Y-112944571D01*
X161242400Y-111444571D01*
X162385257Y-112516000D02*
X163099542Y-112516000D01*
X162242400Y-112944571D02*
X162742400Y-111444571D01*
X163242400Y-112944571D01*
X163742400Y-112944571D02*
X163742400Y-111444571D01*
X164599542Y-112944571D01*
X164599542Y-111444571D01*
X165313828Y-112944571D02*
X165313828Y-111444571D01*
X165885257Y-111444571D02*
X166885257Y-111444571D01*
X165885257Y-112944571D01*
X166885257Y-112944571D01*
X167456685Y-112158857D02*
X167956685Y-112158857D01*
X168170971Y-112944571D02*
X167456685Y-112944571D01*
X167456685Y-111444571D01*
X168170971Y-111444571D01*
X169670971Y-112944571D02*
X169170971Y-112230285D01*
X168813828Y-112944571D02*
X168813828Y-111444571D01*
X169385257Y-111444571D01*
X169528114Y-111516000D01*
X169599542Y-111587428D01*
X169670971Y-111730285D01*
X169670971Y-111944571D01*
X169599542Y-112087428D01*
X169528114Y-112158857D01*
X169385257Y-112230285D01*
X168813828Y-112230285D01*
X171385257Y-112873142D02*
X171599542Y-112944571D01*
X171956685Y-112944571D01*
X172099542Y-112873142D01*
X172170971Y-112801714D01*
X172242400Y-112658857D01*
X172242400Y-112516000D01*
X172170971Y-112373142D01*
X172099542Y-112301714D01*
X171956685Y-112230285D01*
X171670971Y-112158857D01*
X171528114Y-112087428D01*
X171456685Y-112016000D01*
X171385257Y-111873142D01*
X171385257Y-111730285D01*
X171456685Y-111587428D01*
X171528114Y-111516000D01*
X171670971Y-111444571D01*
X172028114Y-111444571D01*
X172242400Y-111516000D01*
X172885257Y-112944571D02*
X172885257Y-111444571D01*
X172885257Y-112158857D02*
X173742400Y-112158857D01*
X173742400Y-112944571D02*
X173742400Y-111444571D01*
X174456685Y-112944571D02*
X174456685Y-111444571D01*
X175170971Y-112158857D02*
X175670971Y-112158857D01*
X175885257Y-112944571D02*
X175170971Y-112944571D01*
X175170971Y-111444571D01*
X175885257Y-111444571D01*
X177242400Y-112944571D02*
X176528114Y-112944571D01*
X176528114Y-111444571D01*
X177742400Y-112944571D02*
X177742400Y-111444571D01*
X178099542Y-111444571D01*
X178313828Y-111516000D01*
X178456685Y-111658857D01*
X178528114Y-111801714D01*
X178599542Y-112087428D01*
X178599542Y-112301714D01*
X178528114Y-112587428D01*
X178456685Y-112730285D01*
X178313828Y-112873142D01*
X178099542Y-112944571D01*
X177742400Y-112944571D01*
X180242400Y-111944571D02*
X180599542Y-112944571D01*
X180956685Y-111944571D01*
X182313828Y-112944571D02*
X181456685Y-112944571D01*
X181885257Y-112944571D02*
X181885257Y-111444571D01*
X181742400Y-111658857D01*
X181599542Y-111801714D01*
X181456685Y-111873142D01*
X182956685Y-112801714D02*
X183028114Y-112873142D01*
X182956685Y-112944571D01*
X182885257Y-112873142D01*
X182956685Y-112801714D01*
X182956685Y-112944571D01*
X183956685Y-111444571D02*
X184099542Y-111444571D01*
X184242400Y-111516000D01*
X184313828Y-111587428D01*
X184385257Y-111730285D01*
X184456685Y-112016000D01*
X184456685Y-112373142D01*
X184385257Y-112658857D01*
X184313828Y-112801714D01*
X184242400Y-112873142D01*
X184099542Y-112944571D01*
X183956685Y-112944571D01*
X183813828Y-112873142D01*
X183742400Y-112801714D01*
X183670971Y-112658857D01*
X183599542Y-112373142D01*
X183599542Y-112016000D01*
X183670971Y-111730285D01*
X183742400Y-111587428D01*
X183813828Y-111516000D01*
X183956685Y-111444571D01*
X165385257Y-115359571D02*
X165385257Y-113859571D01*
X165742399Y-113859571D01*
X165956685Y-113931000D01*
X166099542Y-114073857D01*
X166170971Y-114216714D01*
X166242399Y-114502428D01*
X166242399Y-114716714D01*
X166170971Y-115002428D01*
X166099542Y-115145285D01*
X165956685Y-115288142D01*
X165742399Y-115359571D01*
X165385257Y-115359571D01*
X167528114Y-115359571D02*
X167528114Y-114573857D01*
X167456685Y-114431000D01*
X167313828Y-114359571D01*
X167028114Y-114359571D01*
X166885257Y-114431000D01*
X167528114Y-115288142D02*
X167385257Y-115359571D01*
X167028114Y-115359571D01*
X166885257Y-115288142D01*
X166813828Y-115145285D01*
X166813828Y-115002428D01*
X166885257Y-114859571D01*
X167028114Y-114788142D01*
X167385257Y-114788142D01*
X167528114Y-114716714D01*
X168242399Y-114359571D02*
X168242399Y-115859571D01*
X168242399Y-114431000D02*
X168385257Y-114359571D01*
X168670971Y-114359571D01*
X168813828Y-114431000D01*
X168885257Y-114502428D01*
X168956685Y-114645285D01*
X168956685Y-115073857D01*
X168885257Y-115216714D01*
X168813828Y-115288142D01*
X168670971Y-115359571D01*
X168385257Y-115359571D01*
X168242399Y-115288142D01*
X169599542Y-115359571D02*
X169599542Y-113859571D01*
X170242399Y-115359571D02*
X170242399Y-114573857D01*
X170170971Y-114431000D01*
X170028114Y-114359571D01*
X169813828Y-114359571D01*
X169670971Y-114431000D01*
X169599542Y-114502428D01*
X170956685Y-114359571D02*
X170956685Y-115359571D01*
X170956685Y-114502428D02*
X171028114Y-114431000D01*
X171170971Y-114359571D01*
X171385257Y-114359571D01*
X171528114Y-114431000D01*
X171599542Y-114573857D01*
X171599542Y-115359571D01*
X172885257Y-115288142D02*
X172742399Y-115359571D01*
X172456685Y-115359571D01*
X172313828Y-115288142D01*
X172242399Y-115145285D01*
X172242399Y-114573857D01*
X172313828Y-114431000D01*
X172456685Y-114359571D01*
X172742399Y-114359571D01*
X172885257Y-114431000D01*
X172956685Y-114573857D01*
X172956685Y-114716714D01*
X172242399Y-114859571D01*
X175599542Y-115216714D02*
X175528114Y-115288142D01*
X175313828Y-115359571D01*
X175170971Y-115359571D01*
X174956685Y-115288142D01*
X174813828Y-115145285D01*
X174742399Y-115002428D01*
X174670971Y-114716714D01*
X174670971Y-114502428D01*
X174742399Y-114216714D01*
X174813828Y-114073857D01*
X174956685Y-113931000D01*
X175170971Y-113859571D01*
X175313828Y-113859571D01*
X175528114Y-113931000D01*
X175599542Y-114002428D01*
X176242399Y-115359571D02*
X176242399Y-113859571D01*
X176885257Y-115359571D02*
X176885257Y-114573857D01*
X176813828Y-114431000D01*
X176670971Y-114359571D01*
X176456685Y-114359571D01*
X176313828Y-114431000D01*
X176242399Y-114502428D01*
X178170971Y-115288142D02*
X178028114Y-115359571D01*
X177742399Y-115359571D01*
X177599542Y-115288142D01*
X177528114Y-115145285D01*
X177528114Y-114573857D01*
X177599542Y-114431000D01*
X177742399Y-114359571D01*
X178028114Y-114359571D01*
X178170971Y-114431000D01*
X178242399Y-114573857D01*
X178242399Y-114716714D01*
X177528114Y-114859571D01*
X178742399Y-114359571D02*
X179099542Y-115359571D01*
X179456685Y-114359571D01*
X180670971Y-115359571D02*
X180670971Y-114573857D01*
X180599542Y-114431000D01*
X180456685Y-114359571D01*
X180170971Y-114359571D01*
X180028114Y-114431000D01*
X180670971Y-115288142D02*
X180528114Y-115359571D01*
X180170971Y-115359571D01*
X180028114Y-115288142D01*
X179956685Y-115145285D01*
X179956685Y-115002428D01*
X180028114Y-114859571D01*
X180170971Y-114788142D01*
X180528114Y-114788142D01*
X180670971Y-114716714D01*
X181599542Y-115359571D02*
X181456685Y-115288142D01*
X181385257Y-115145285D01*
X181385257Y-113859571D01*
X182170971Y-115359571D02*
X182170971Y-114359571D01*
X182170971Y-113859571D02*
X182099542Y-113931000D01*
X182170971Y-114002428D01*
X182242399Y-113931000D01*
X182170971Y-113859571D01*
X182170971Y-114002428D01*
X183456685Y-115288142D02*
X183313828Y-115359571D01*
X183028114Y-115359571D01*
X182885257Y-115288142D01*
X182813828Y-115145285D01*
X182813828Y-114573857D01*
X182885257Y-114431000D01*
X183028114Y-114359571D01*
X183313828Y-114359571D01*
X183456685Y-114431000D01*
X183528114Y-114573857D01*
X183528114Y-114716714D01*
X182813828Y-114859571D01*
X184170971Y-115359571D02*
X184170971Y-114359571D01*
X184170971Y-114645285D02*
X184242399Y-114502428D01*
X184313828Y-114431000D01*
X184456685Y-114359571D01*
X184599542Y-114359571D01*
X163956685Y-117774571D02*
X163242400Y-117774571D01*
X163242400Y-116274571D01*
X164456685Y-117774571D02*
X164456685Y-116774571D01*
X164456685Y-116274571D02*
X164385257Y-116346000D01*
X164456685Y-116417428D01*
X164528114Y-116346000D01*
X164456685Y-116274571D01*
X164456685Y-116417428D01*
X165813828Y-117703142D02*
X165670971Y-117774571D01*
X165385257Y-117774571D01*
X165242400Y-117703142D01*
X165170971Y-117631714D01*
X165099542Y-117488857D01*
X165099542Y-117060285D01*
X165170971Y-116917428D01*
X165242400Y-116846000D01*
X165385257Y-116774571D01*
X165670971Y-116774571D01*
X165813828Y-116846000D01*
X167028114Y-117703142D02*
X166885257Y-117774571D01*
X166599542Y-117774571D01*
X166456685Y-117703142D01*
X166385257Y-117560285D01*
X166385257Y-116988857D01*
X166456685Y-116846000D01*
X166599542Y-116774571D01*
X166885257Y-116774571D01*
X167028114Y-116846000D01*
X167099542Y-116988857D01*
X167099542Y-117131714D01*
X166385257Y-117274571D01*
X167742400Y-116774571D02*
X167742400Y-117774571D01*
X167742400Y-116917428D02*
X167813828Y-116846000D01*
X167956685Y-116774571D01*
X168170971Y-116774571D01*
X168313828Y-116846000D01*
X168385257Y-116988857D01*
X168385257Y-117774571D01*
X169028114Y-117703142D02*
X169170971Y-117774571D01*
X169456685Y-117774571D01*
X169599542Y-117703142D01*
X169670971Y-117560285D01*
X169670971Y-117488857D01*
X169599542Y-117346000D01*
X169456685Y-117274571D01*
X169242400Y-117274571D01*
X169099542Y-117203142D01*
X169028114Y-117060285D01*
X169028114Y-116988857D01*
X169099542Y-116846000D01*
X169242400Y-116774571D01*
X169456685Y-116774571D01*
X169599542Y-116846000D01*
X170885257Y-117703142D02*
X170742400Y-117774571D01*
X170456685Y-117774571D01*
X170313828Y-117703142D01*
X170242400Y-117560285D01*
X170242400Y-116988857D01*
X170313828Y-116846000D01*
X170456685Y-116774571D01*
X170742400Y-116774571D01*
X170885257Y-116846000D01*
X170956685Y-116988857D01*
X170956685Y-117131714D01*
X170242400Y-117274571D01*
X171599542Y-117631714D02*
X171670971Y-117703142D01*
X171599542Y-117774571D01*
X171528114Y-117703142D01*
X171599542Y-117631714D01*
X171599542Y-117774571D01*
X171599542Y-116846000D02*
X171670971Y-116917428D01*
X171599542Y-116988857D01*
X171528114Y-116917428D01*
X171599542Y-116846000D01*
X171599542Y-116988857D01*
X174313828Y-117631714D02*
X174242400Y-117703142D01*
X174028114Y-117774571D01*
X173885257Y-117774571D01*
X173670971Y-117703142D01*
X173528114Y-117560285D01*
X173456685Y-117417428D01*
X173385257Y-117131714D01*
X173385257Y-116917428D01*
X173456685Y-116631714D01*
X173528114Y-116488857D01*
X173670971Y-116346000D01*
X173885257Y-116274571D01*
X174028114Y-116274571D01*
X174242400Y-116346000D01*
X174313828Y-116417428D01*
X175813828Y-117631714D02*
X175742400Y-117703142D01*
X175528114Y-117774571D01*
X175385257Y-117774571D01*
X175170971Y-117703142D01*
X175028114Y-117560285D01*
X174956685Y-117417428D01*
X174885257Y-117131714D01*
X174885257Y-116917428D01*
X174956685Y-116631714D01*
X175028114Y-116488857D01*
X175170971Y-116346000D01*
X175385257Y-116274571D01*
X175528114Y-116274571D01*
X175742400Y-116346000D01*
X175813828Y-116417428D01*
X178099542Y-116988857D02*
X178313828Y-117060285D01*
X178385257Y-117131714D01*
X178456685Y-117274571D01*
X178456685Y-117488857D01*
X178385257Y-117631714D01*
X178313828Y-117703142D01*
X178170971Y-117774571D01*
X177599542Y-117774571D01*
X177599542Y-116274571D01*
X178099542Y-116274571D01*
X178242400Y-116346000D01*
X178313828Y-116417428D01*
X178385257Y-116560285D01*
X178385257Y-116703142D01*
X178313828Y-116846000D01*
X178242400Y-116917428D01*
X178099542Y-116988857D01*
X177599542Y-116988857D01*
X179385257Y-117060285D02*
X179385257Y-117774571D01*
X178885257Y-116274571D02*
X179385257Y-117060285D01*
X179885257Y-116274571D01*
X182170971Y-116774571D02*
X182170971Y-117774571D01*
X181813828Y-116203142D02*
X181456685Y-117274571D01*
X182385257Y-117274571D01*
X182956685Y-117631714D02*
X183028114Y-117703142D01*
X182956685Y-117774571D01*
X182885257Y-117703142D01*
X182956685Y-117631714D01*
X182956685Y-117774571D01*
X183956685Y-116274571D02*
X184099542Y-116274571D01*
X184242400Y-116346000D01*
X184313828Y-116417428D01*
X184385257Y-116560285D01*
X184456685Y-116846000D01*
X184456685Y-117203142D01*
X184385257Y-117488857D01*
X184313828Y-117631714D01*
X184242400Y-117703142D01*
X184099542Y-117774571D01*
X183956685Y-117774571D01*
X183813828Y-117703142D01*
X183742400Y-117631714D01*
X183670971Y-117488857D01*
X183599542Y-117203142D01*
X183599542Y-116846000D01*
X183670971Y-116560285D01*
X183742400Y-116417428D01*
X183813828Y-116346000D01*
X183956685Y-116274571D01*
D10*
X161221800Y-66878104D02*
X161174180Y-66973342D01*
X161174180Y-67116200D01*
X161221800Y-67259057D01*
X161317038Y-67354295D01*
X161412276Y-67401914D01*
X161602752Y-67449533D01*
X161745609Y-67449533D01*
X161936085Y-67401914D01*
X162031323Y-67354295D01*
X162126561Y-67259057D01*
X162174180Y-67116200D01*
X162174180Y-67020961D01*
X162126561Y-66878104D01*
X162078942Y-66830485D01*
X161745609Y-66830485D01*
X161745609Y-67020961D01*
X162174180Y-66401914D02*
X161174180Y-66401914D01*
X162174180Y-65830485D01*
X161174180Y-65830485D01*
X162174180Y-65354295D02*
X161174180Y-65354295D01*
X161174180Y-65116200D01*
X161221800Y-64973342D01*
X161317038Y-64878104D01*
X161412276Y-64830485D01*
X161602752Y-64782866D01*
X161745609Y-64782866D01*
X161936085Y-64830485D01*
X162031323Y-64878104D01*
X162126561Y-64973342D01*
X162174180Y-65116200D01*
X162174180Y-65354295D01*
X158634180Y-66865476D02*
X158634180Y-67341666D01*
X159110371Y-67389285D01*
X159062752Y-67341666D01*
X159015133Y-67246428D01*
X159015133Y-67008333D01*
X159062752Y-66913095D01*
X159110371Y-66865476D01*
X159205609Y-66817857D01*
X159443704Y-66817857D01*
X159538942Y-66865476D01*
X159586561Y-66913095D01*
X159634180Y-67008333D01*
X159634180Y-67246428D01*
X159586561Y-67341666D01*
X159538942Y-67389285D01*
X158634180Y-66532142D02*
X159634180Y-66198809D01*
X158634180Y-65865476D01*
X157094180Y-66886009D02*
X156617990Y-67219342D01*
X157094180Y-67457438D02*
X156094180Y-67457438D01*
X156094180Y-67076485D01*
X156141800Y-66981247D01*
X156189419Y-66933628D01*
X156284657Y-66886009D01*
X156427514Y-66886009D01*
X156522752Y-66933628D01*
X156570371Y-66981247D01*
X156617990Y-67076485D01*
X156617990Y-67457438D01*
X157046561Y-66505057D02*
X157094180Y-66362200D01*
X157094180Y-66124104D01*
X157046561Y-66028866D01*
X156998942Y-65981247D01*
X156903704Y-65933628D01*
X156808466Y-65933628D01*
X156713228Y-65981247D01*
X156665609Y-66028866D01*
X156617990Y-66124104D01*
X156570371Y-66314580D01*
X156522752Y-66409819D01*
X156475133Y-66457438D01*
X156379895Y-66505057D01*
X156284657Y-66505057D01*
X156189419Y-66457438D01*
X156141800Y-66409819D01*
X156094180Y-66314580D01*
X156094180Y-66076485D01*
X156141800Y-65933628D01*
X156094180Y-65647914D02*
X156094180Y-65076485D01*
X157094180Y-65362200D02*
X156094180Y-65362200D01*
X156189419Y-64790771D02*
X156141800Y-64743152D01*
X156094180Y-64647914D01*
X156094180Y-64409819D01*
X156141800Y-64314580D01*
X156189419Y-64266961D01*
X156284657Y-64219342D01*
X156379895Y-64219342D01*
X156522752Y-64266961D01*
X157094180Y-64838390D01*
X157094180Y-64219342D01*
X152064980Y-67433628D02*
X151064980Y-67433628D01*
X151779266Y-67100295D01*
X151064980Y-66766961D01*
X152064980Y-66766961D01*
X151064980Y-66100295D02*
X151064980Y-65909819D01*
X151112600Y-65814580D01*
X151207838Y-65719342D01*
X151398314Y-65671723D01*
X151731647Y-65671723D01*
X151922123Y-65719342D01*
X152017361Y-65814580D01*
X152064980Y-65909819D01*
X152064980Y-66100295D01*
X152017361Y-66195533D01*
X151922123Y-66290771D01*
X151731647Y-66338390D01*
X151398314Y-66338390D01*
X151207838Y-66290771D01*
X151112600Y-66195533D01*
X151064980Y-66100295D01*
X152017361Y-65290771D02*
X152064980Y-65147914D01*
X152064980Y-64909819D01*
X152017361Y-64814580D01*
X151969742Y-64766961D01*
X151874504Y-64719342D01*
X151779266Y-64719342D01*
X151684028Y-64766961D01*
X151636409Y-64814580D01*
X151588790Y-64909819D01*
X151541171Y-65100295D01*
X151493552Y-65195533D01*
X151445933Y-65243152D01*
X151350695Y-65290771D01*
X151255457Y-65290771D01*
X151160219Y-65243152D01*
X151112600Y-65195533D01*
X151064980Y-65100295D01*
X151064980Y-64862200D01*
X151112600Y-64719342D01*
X152064980Y-64290771D02*
X151064980Y-64290771D01*
X149372580Y-67433628D02*
X148372580Y-67433628D01*
X149086866Y-67100295D01*
X148372580Y-66766961D01*
X149372580Y-66766961D01*
X149372580Y-66290771D02*
X148372580Y-66290771D01*
X149324961Y-65862200D02*
X149372580Y-65719342D01*
X149372580Y-65481247D01*
X149324961Y-65386009D01*
X149277342Y-65338390D01*
X149182104Y-65290771D01*
X149086866Y-65290771D01*
X148991628Y-65338390D01*
X148944009Y-65386009D01*
X148896390Y-65481247D01*
X148848771Y-65671723D01*
X148801152Y-65766961D01*
X148753533Y-65814580D01*
X148658295Y-65862200D01*
X148563057Y-65862200D01*
X148467819Y-65814580D01*
X148420200Y-65766961D01*
X148372580Y-65671723D01*
X148372580Y-65433628D01*
X148420200Y-65290771D01*
X148372580Y-64671723D02*
X148372580Y-64481247D01*
X148420200Y-64386009D01*
X148515438Y-64290771D01*
X148705914Y-64243152D01*
X149039247Y-64243152D01*
X149229723Y-64290771D01*
X149324961Y-64386009D01*
X149372580Y-64481247D01*
X149372580Y-64671723D01*
X149324961Y-64766961D01*
X149229723Y-64862200D01*
X149039247Y-64909819D01*
X148705914Y-64909819D01*
X148515438Y-64862200D01*
X148420200Y-64766961D01*
X148372580Y-64671723D01*
X154658961Y-67452714D02*
X154706580Y-67309857D01*
X154706580Y-67071761D01*
X154658961Y-66976523D01*
X154611342Y-66928904D01*
X154516104Y-66881285D01*
X154420866Y-66881285D01*
X154325628Y-66928904D01*
X154278009Y-66976523D01*
X154230390Y-67071761D01*
X154182771Y-67262238D01*
X154135152Y-67357476D01*
X154087533Y-67405095D01*
X153992295Y-67452714D01*
X153897057Y-67452714D01*
X153801819Y-67405095D01*
X153754200Y-67357476D01*
X153706580Y-67262238D01*
X153706580Y-67024142D01*
X153754200Y-66881285D01*
X154611342Y-65881285D02*
X154658961Y-65928904D01*
X154706580Y-66071761D01*
X154706580Y-66167000D01*
X154658961Y-66309857D01*
X154563723Y-66405095D01*
X154468485Y-66452714D01*
X154278009Y-66500333D01*
X154135152Y-66500333D01*
X153944676Y-66452714D01*
X153849438Y-66405095D01*
X153754200Y-66309857D01*
X153706580Y-66167000D01*
X153706580Y-66071761D01*
X153754200Y-65928904D01*
X153801819Y-65881285D01*
X154706580Y-65452714D02*
X153706580Y-65452714D01*
X154706580Y-64881285D02*
X154135152Y-65309857D01*
X153706580Y-64881285D02*
X154278009Y-65452714D01*
X114028600Y-128650904D02*
X113980980Y-128746142D01*
X113980980Y-128889000D01*
X114028600Y-129031857D01*
X114123838Y-129127095D01*
X114219076Y-129174714D01*
X114409552Y-129222333D01*
X114552409Y-129222333D01*
X114742885Y-129174714D01*
X114838123Y-129127095D01*
X114933361Y-129031857D01*
X114980980Y-128889000D01*
X114980980Y-128793761D01*
X114933361Y-128650904D01*
X114885742Y-128603285D01*
X114552409Y-128603285D01*
X114552409Y-128793761D01*
X114980980Y-128174714D02*
X113980980Y-128174714D01*
X114980980Y-127603285D01*
X113980980Y-127603285D01*
X114980980Y-127127095D02*
X113980980Y-127127095D01*
X113980980Y-126889000D01*
X114028600Y-126746142D01*
X114123838Y-126650904D01*
X114219076Y-126603285D01*
X114409552Y-126555666D01*
X114552409Y-126555666D01*
X114742885Y-126603285D01*
X114838123Y-126650904D01*
X114933361Y-126746142D01*
X114980980Y-126889000D01*
X114980980Y-127127095D01*
X116825780Y-129136638D02*
X117825780Y-128803304D01*
X116825780Y-128469971D01*
X117825780Y-128136638D02*
X116825780Y-128136638D01*
X117825780Y-127660447D02*
X116825780Y-127660447D01*
X117825780Y-127089019D01*
X116825780Y-127089019D01*
D11*
X120360714Y-135911400D02*
X121075000Y-135911400D01*
X120217857Y-136339971D02*
X120717857Y-134839971D01*
X121217857Y-136339971D01*
X122432142Y-136339971D02*
X121717857Y-136339971D01*
X121717857Y-134839971D01*
X122717857Y-134839971D02*
X123575000Y-134839971D01*
X123146428Y-136339971D02*
X123146428Y-134839971D01*
X125932142Y-134839971D02*
X125217857Y-134839971D01*
X125146428Y-135554257D01*
X125217857Y-135482828D01*
X125360714Y-135411400D01*
X125717857Y-135411400D01*
X125860714Y-135482828D01*
X125932142Y-135554257D01*
X126003571Y-135697114D01*
X126003571Y-136054257D01*
X125932142Y-136197114D01*
X125860714Y-136268542D01*
X125717857Y-136339971D01*
X125360714Y-136339971D01*
X125217857Y-136268542D01*
X125146428Y-136197114D01*
X126432142Y-134839971D02*
X126932142Y-136339971D01*
X127432142Y-134839971D01*
D10*
X94562752Y-94899171D02*
X94705609Y-94946790D01*
X94753228Y-94994409D01*
X94800847Y-95089647D01*
X94800847Y-95232504D01*
X94753228Y-95327742D01*
X94705609Y-95375361D01*
X94610371Y-95422980D01*
X94229419Y-95422980D01*
X94229419Y-94422980D01*
X94562752Y-94422980D01*
X94657990Y-94470600D01*
X94705609Y-94518219D01*
X94753228Y-94613457D01*
X94753228Y-94708695D01*
X94705609Y-94803933D01*
X94657990Y-94851552D01*
X94562752Y-94899171D01*
X94229419Y-94899171D01*
X95181800Y-95137266D02*
X95657990Y-95137266D01*
X95086561Y-95422980D02*
X95419895Y-94422980D01*
X95753228Y-95422980D01*
X95943704Y-94422980D02*
X96515133Y-94422980D01*
X96229419Y-95422980D02*
X96229419Y-94422980D01*
X96705609Y-94422980D02*
X97277038Y-94422980D01*
X96991323Y-95422980D02*
X96991323Y-94422980D01*
X146632561Y-69848314D02*
X146680180Y-69705457D01*
X146680180Y-69467361D01*
X146632561Y-69372123D01*
X146584942Y-69324504D01*
X146489704Y-69276885D01*
X146394466Y-69276885D01*
X146299228Y-69324504D01*
X146251609Y-69372123D01*
X146203990Y-69467361D01*
X146156371Y-69657838D01*
X146108752Y-69753076D01*
X146061133Y-69800695D01*
X145965895Y-69848314D01*
X145870657Y-69848314D01*
X145775419Y-69800695D01*
X145727800Y-69753076D01*
X145680180Y-69657838D01*
X145680180Y-69419742D01*
X145727800Y-69276885D01*
X146680180Y-68848314D02*
X145680180Y-68848314D01*
X145680180Y-68610219D01*
X145727800Y-68467361D01*
X145823038Y-68372123D01*
X145918276Y-68324504D01*
X146108752Y-68276885D01*
X146251609Y-68276885D01*
X146442085Y-68324504D01*
X146537323Y-68372123D01*
X146632561Y-68467361D01*
X146680180Y-68610219D01*
X146680180Y-68848314D01*
X105405180Y-91271647D02*
X105405180Y-91843076D01*
X105405180Y-91557361D02*
X104405180Y-91557361D01*
X104548038Y-91652600D01*
X104643276Y-91747838D01*
X104690895Y-91843076D01*
X104405180Y-90366885D02*
X104405180Y-90843076D01*
X104881371Y-90890695D01*
X104833752Y-90843076D01*
X104786133Y-90747838D01*
X104786133Y-90509742D01*
X104833752Y-90414504D01*
X104881371Y-90366885D01*
X104976609Y-90319266D01*
X105214704Y-90319266D01*
X105309942Y-90366885D01*
X105357561Y-90414504D01*
X105405180Y-90509742D01*
X105405180Y-90747838D01*
X105357561Y-90843076D01*
X105309942Y-90890695D01*
X104405180Y-90033552D02*
X105405180Y-89700219D01*
X104405180Y-89366885D01*
X104532180Y-104924123D02*
X105532180Y-104590790D01*
X104532180Y-104257457D01*
X105484561Y-103971742D02*
X105532180Y-103828885D01*
X105532180Y-103590790D01*
X105484561Y-103495552D01*
X105436942Y-103447933D01*
X105341704Y-103400314D01*
X105246466Y-103400314D01*
X105151228Y-103447933D01*
X105103609Y-103495552D01*
X105055990Y-103590790D01*
X105008371Y-103781266D01*
X104960752Y-103876504D01*
X104913133Y-103924123D01*
X104817895Y-103971742D01*
X104722657Y-103971742D01*
X104627419Y-103924123D01*
X104579800Y-103876504D01*
X104532180Y-103781266D01*
X104532180Y-103543171D01*
X104579800Y-103400314D01*
X144632514Y-82675361D02*
X144775371Y-82722980D01*
X145013466Y-82722980D01*
X145108704Y-82675361D01*
X145156323Y-82627742D01*
X145203942Y-82532504D01*
X145203942Y-82437266D01*
X145156323Y-82342028D01*
X145108704Y-82294409D01*
X145013466Y-82246790D01*
X144822990Y-82199171D01*
X144727752Y-82151552D01*
X144680133Y-82103933D01*
X144632514Y-82008695D01*
X144632514Y-81913457D01*
X144680133Y-81818219D01*
X144727752Y-81770600D01*
X144822990Y-81722980D01*
X145061085Y-81722980D01*
X145203942Y-81770600D01*
X145632514Y-82722980D02*
X145632514Y-81722980D01*
X145870609Y-81722980D01*
X146013466Y-81770600D01*
X146108704Y-81865838D01*
X146156323Y-81961076D01*
X146203942Y-82151552D01*
X146203942Y-82294409D01*
X146156323Y-82484885D01*
X146108704Y-82580123D01*
X146013466Y-82675361D01*
X145870609Y-82722980D01*
X145632514Y-82722980D01*
X146584895Y-82437266D02*
X147061085Y-82437266D01*
X146489657Y-82722980D02*
X146822990Y-81722980D01*
X147156323Y-82722980D01*
X104706800Y-99161504D02*
X104659180Y-99256742D01*
X104659180Y-99399600D01*
X104706800Y-99542457D01*
X104802038Y-99637695D01*
X104897276Y-99685314D01*
X105087752Y-99732933D01*
X105230609Y-99732933D01*
X105421085Y-99685314D01*
X105516323Y-99637695D01*
X105611561Y-99542457D01*
X105659180Y-99399600D01*
X105659180Y-99304361D01*
X105611561Y-99161504D01*
X105563942Y-99113885D01*
X105230609Y-99113885D01*
X105230609Y-99304361D01*
X105659180Y-98685314D02*
X104659180Y-98685314D01*
X105659180Y-98113885D01*
X104659180Y-98113885D01*
X105659180Y-97637695D02*
X104659180Y-97637695D01*
X104659180Y-97399600D01*
X104706800Y-97256742D01*
X104802038Y-97161504D01*
X104897276Y-97113885D01*
X105087752Y-97066266D01*
X105230609Y-97066266D01*
X105421085Y-97113885D01*
X105516323Y-97161504D01*
X105611561Y-97256742D01*
X105659180Y-97399600D01*
X105659180Y-97637695D01*
X104452800Y-86207504D02*
X104405180Y-86302742D01*
X104405180Y-86445600D01*
X104452800Y-86588457D01*
X104548038Y-86683695D01*
X104643276Y-86731314D01*
X104833752Y-86778933D01*
X104976609Y-86778933D01*
X105167085Y-86731314D01*
X105262323Y-86683695D01*
X105357561Y-86588457D01*
X105405180Y-86445600D01*
X105405180Y-86350361D01*
X105357561Y-86207504D01*
X105309942Y-86159885D01*
X104976609Y-86159885D01*
X104976609Y-86350361D01*
X105405180Y-85731314D02*
X104405180Y-85731314D01*
X105405180Y-85159885D01*
X104405180Y-85159885D01*
X105405180Y-84683695D02*
X104405180Y-84683695D01*
X104405180Y-84445600D01*
X104452800Y-84302742D01*
X104548038Y-84207504D01*
X104643276Y-84159885D01*
X104833752Y-84112266D01*
X104976609Y-84112266D01*
X105167085Y-84159885D01*
X105262323Y-84207504D01*
X105357561Y-84302742D01*
X105405180Y-84445600D01*
X105405180Y-84683695D01*
X125741180Y-68745076D02*
X125741180Y-69221266D01*
X126217371Y-69268885D01*
X126169752Y-69221266D01*
X126122133Y-69126028D01*
X126122133Y-68887933D01*
X126169752Y-68792695D01*
X126217371Y-68745076D01*
X126312609Y-68697457D01*
X126550704Y-68697457D01*
X126645942Y-68745076D01*
X126693561Y-68792695D01*
X126741180Y-68887933D01*
X126741180Y-69126028D01*
X126693561Y-69221266D01*
X126645942Y-69268885D01*
X125741180Y-68411742D02*
X126741180Y-68078409D01*
X125741180Y-67745076D01*
X94221561Y-81929266D02*
X94697752Y-81929266D01*
X94126323Y-82214980D02*
X94459657Y-81214980D01*
X94792990Y-82214980D01*
X95697752Y-82214980D02*
X95364419Y-81738790D01*
X95126323Y-82214980D02*
X95126323Y-81214980D01*
X95507276Y-81214980D01*
X95602514Y-81262600D01*
X95650133Y-81310219D01*
X95697752Y-81405457D01*
X95697752Y-81548314D01*
X95650133Y-81643552D01*
X95602514Y-81691171D01*
X95507276Y-81738790D01*
X95126323Y-81738790D01*
X96697752Y-82214980D02*
X96364419Y-81738790D01*
X96126323Y-82214980D02*
X96126323Y-81214980D01*
X96507276Y-81214980D01*
X96602514Y-81262600D01*
X96650133Y-81310219D01*
X96697752Y-81405457D01*
X96697752Y-81548314D01*
X96650133Y-81643552D01*
X96602514Y-81691171D01*
X96507276Y-81738790D01*
X96126323Y-81738790D01*
X97078704Y-81929266D02*
X97554895Y-81929266D01*
X96983466Y-82214980D02*
X97316800Y-81214980D01*
X97650133Y-82214980D01*
X98173942Y-81738790D02*
X98173942Y-82214980D01*
X97840609Y-81214980D02*
X98173942Y-81738790D01*
X98507276Y-81214980D01*
X136401323Y-82675361D02*
X136544180Y-82722980D01*
X136782276Y-82722980D01*
X136877514Y-82675361D01*
X136925133Y-82627742D01*
X136972752Y-82532504D01*
X136972752Y-82437266D01*
X136925133Y-82342028D01*
X136877514Y-82294409D01*
X136782276Y-82246790D01*
X136591800Y-82199171D01*
X136496561Y-82151552D01*
X136448942Y-82103933D01*
X136401323Y-82008695D01*
X136401323Y-81913457D01*
X136448942Y-81818219D01*
X136496561Y-81770600D01*
X136591800Y-81722980D01*
X136829895Y-81722980D01*
X136972752Y-81770600D01*
X137972752Y-82627742D02*
X137925133Y-82675361D01*
X137782276Y-82722980D01*
X137687038Y-82722980D01*
X137544180Y-82675361D01*
X137448942Y-82580123D01*
X137401323Y-82484885D01*
X137353704Y-82294409D01*
X137353704Y-82151552D01*
X137401323Y-81961076D01*
X137448942Y-81865838D01*
X137544180Y-81770600D01*
X137687038Y-81722980D01*
X137782276Y-81722980D01*
X137925133Y-81770600D01*
X137972752Y-81818219D01*
X138877514Y-82722980D02*
X138401323Y-82722980D01*
X138401323Y-81722980D01*
X106459400Y-69799104D02*
X106411780Y-69894342D01*
X106411780Y-70037200D01*
X106459400Y-70180057D01*
X106554638Y-70275295D01*
X106649876Y-70322914D01*
X106840352Y-70370533D01*
X106983209Y-70370533D01*
X107173685Y-70322914D01*
X107268923Y-70275295D01*
X107364161Y-70180057D01*
X107411780Y-70037200D01*
X107411780Y-69941961D01*
X107364161Y-69799104D01*
X107316542Y-69751485D01*
X106983209Y-69751485D01*
X106983209Y-69941961D01*
X107411780Y-69322914D02*
X106411780Y-69322914D01*
X107411780Y-68751485D01*
X106411780Y-68751485D01*
X107411780Y-68275295D02*
X106411780Y-68275295D01*
X106411780Y-68037200D01*
X106459400Y-67894342D01*
X106554638Y-67799104D01*
X106649876Y-67751485D01*
X106840352Y-67703866D01*
X106983209Y-67703866D01*
X107173685Y-67751485D01*
X107268923Y-67799104D01*
X107364161Y-67894342D01*
X107411780Y-68037200D01*
X107411780Y-68275295D01*
X155304998Y-97639142D02*
X155352617Y-97686761D01*
X155304998Y-97734380D01*
X155257378Y-97686761D01*
X155304998Y-97639142D01*
X155304998Y-97734380D01*
D12*
X183589990Y-110269261D02*
X183589990Y-110783309D01*
X183620228Y-110843785D01*
X183650466Y-110874023D01*
X183710942Y-110904261D01*
X183831895Y-110904261D01*
X183892371Y-110874023D01*
X183922609Y-110843785D01*
X183952847Y-110783309D01*
X183952847Y-110269261D01*
X184527371Y-110480928D02*
X184527371Y-110904261D01*
X184376180Y-110239023D02*
X184224990Y-110692595D01*
X184618085Y-110692595D01*
X98575585Y-127963385D02*
X98545347Y-127993623D01*
X98454633Y-128023861D01*
X98394157Y-128023861D01*
X98303442Y-127993623D01*
X98242966Y-127933147D01*
X98212728Y-127872671D01*
X98182490Y-127751719D01*
X98182490Y-127661004D01*
X98212728Y-127540052D01*
X98242966Y-127479576D01*
X98303442Y-127419100D01*
X98394157Y-127388861D01*
X98454633Y-127388861D01*
X98545347Y-127419100D01*
X98575585Y-127449338D01*
X99180347Y-128023861D02*
X98817490Y-128023861D01*
X98998919Y-128023861D02*
X98998919Y-127388861D01*
X98938442Y-127479576D01*
X98877966Y-127540052D01*
X98817490Y-127570290D01*
X99785109Y-128023861D02*
X99422252Y-128023861D01*
X99603680Y-128023861D02*
X99603680Y-127388861D01*
X99543204Y-127479576D01*
X99482728Y-127540052D01*
X99422252Y-127570290D01*
X109114166Y-99794785D02*
X109083928Y-99825023D01*
X108993214Y-99855261D01*
X108932738Y-99855261D01*
X108842023Y-99825023D01*
X108781547Y-99764547D01*
X108751309Y-99704071D01*
X108721071Y-99583119D01*
X108721071Y-99492404D01*
X108751309Y-99371452D01*
X108781547Y-99310976D01*
X108842023Y-99250500D01*
X108932738Y-99220261D01*
X108993214Y-99220261D01*
X109083928Y-99250500D01*
X109114166Y-99280738D01*
X109356071Y-99280738D02*
X109386309Y-99250500D01*
X109446785Y-99220261D01*
X109597976Y-99220261D01*
X109658452Y-99250500D01*
X109688690Y-99280738D01*
X109718928Y-99341214D01*
X109718928Y-99401690D01*
X109688690Y-99492404D01*
X109325833Y-99855261D01*
X109718928Y-99855261D01*
D13*
X106144180Y-119548123D02*
X106144180Y-120576219D01*
X106204657Y-120697171D01*
X106265133Y-120757647D01*
X106386085Y-120818123D01*
X106627990Y-120818123D01*
X106748942Y-120757647D01*
X106809419Y-120697171D01*
X106869895Y-120576219D01*
X106869895Y-119548123D01*
X107414180Y-119669076D02*
X107474657Y-119608600D01*
X107595609Y-119548123D01*
X107897990Y-119548123D01*
X108018942Y-119608600D01*
X108079419Y-119669076D01*
X108139895Y-119790028D01*
X108139895Y-119910980D01*
X108079419Y-120092409D01*
X107353704Y-120818123D01*
X108139895Y-120818123D01*
D12*
X112799585Y-112523814D02*
X112829823Y-112554052D01*
X112860061Y-112644766D01*
X112860061Y-112705242D01*
X112829823Y-112795957D01*
X112769347Y-112856433D01*
X112708871Y-112886671D01*
X112587919Y-112916909D01*
X112497204Y-112916909D01*
X112376252Y-112886671D01*
X112315776Y-112856433D01*
X112255300Y-112795957D01*
X112225061Y-112705242D01*
X112225061Y-112644766D01*
X112255300Y-112554052D01*
X112285538Y-112523814D01*
X112860061Y-111919052D02*
X112860061Y-112281909D01*
X112860061Y-112100480D02*
X112225061Y-112100480D01*
X112315776Y-112160957D01*
X112376252Y-112221433D01*
X112406490Y-112281909D01*
X112497204Y-111556195D02*
X112466966Y-111616671D01*
X112436728Y-111646909D01*
X112376252Y-111677147D01*
X112346014Y-111677147D01*
X112285538Y-111646909D01*
X112255300Y-111616671D01*
X112225061Y-111556195D01*
X112225061Y-111435242D01*
X112255300Y-111374766D01*
X112285538Y-111344528D01*
X112346014Y-111314290D01*
X112376252Y-111314290D01*
X112436728Y-111344528D01*
X112466966Y-111374766D01*
X112497204Y-111435242D01*
X112497204Y-111556195D01*
X112527442Y-111616671D01*
X112557680Y-111646909D01*
X112618157Y-111677147D01*
X112739109Y-111677147D01*
X112799585Y-111646909D01*
X112829823Y-111616671D01*
X112860061Y-111556195D01*
X112860061Y-111435242D01*
X112829823Y-111374766D01*
X112799585Y-111344528D01*
X112739109Y-111314290D01*
X112618157Y-111314290D01*
X112557680Y-111344528D01*
X112527442Y-111374766D01*
X112497204Y-111435242D01*
X136294585Y-99188814D02*
X136324823Y-99219052D01*
X136355061Y-99309766D01*
X136355061Y-99370242D01*
X136324823Y-99460957D01*
X136264347Y-99521433D01*
X136203871Y-99551671D01*
X136082919Y-99581909D01*
X135992204Y-99581909D01*
X135871252Y-99551671D01*
X135810776Y-99521433D01*
X135750300Y-99460957D01*
X135720061Y-99370242D01*
X135720061Y-99309766D01*
X135750300Y-99219052D01*
X135780538Y-99188814D01*
X135780538Y-98946909D02*
X135750300Y-98916671D01*
X135720061Y-98856195D01*
X135720061Y-98705004D01*
X135750300Y-98644528D01*
X135780538Y-98614290D01*
X135841014Y-98584052D01*
X135901490Y-98584052D01*
X135992204Y-98614290D01*
X136355061Y-98977147D01*
X136355061Y-98584052D01*
X135780538Y-98342147D02*
X135750300Y-98311909D01*
X135720061Y-98251433D01*
X135720061Y-98100242D01*
X135750300Y-98039766D01*
X135780538Y-98009528D01*
X135841014Y-97979290D01*
X135901490Y-97979290D01*
X135992204Y-98009528D01*
X136355061Y-98372385D01*
X136355061Y-97979290D01*
X103147585Y-112215385D02*
X103117347Y-112245623D01*
X103026633Y-112275861D01*
X102966157Y-112275861D01*
X102875442Y-112245623D01*
X102814966Y-112185147D01*
X102784728Y-112124671D01*
X102754490Y-112003719D01*
X102754490Y-111913004D01*
X102784728Y-111792052D01*
X102814966Y-111731576D01*
X102875442Y-111671100D01*
X102966157Y-111640861D01*
X103026633Y-111640861D01*
X103117347Y-111671100D01*
X103147585Y-111701338D01*
X103752347Y-112275861D02*
X103389490Y-112275861D01*
X103570919Y-112275861D02*
X103570919Y-111640861D01*
X103510442Y-111731576D01*
X103449966Y-111792052D01*
X103389490Y-111822290D01*
X104296633Y-111640861D02*
X104175680Y-111640861D01*
X104115204Y-111671100D01*
X104084966Y-111701338D01*
X104024490Y-111792052D01*
X103994252Y-111913004D01*
X103994252Y-112154909D01*
X104024490Y-112215385D01*
X104054728Y-112245623D01*
X104115204Y-112275861D01*
X104236157Y-112275861D01*
X104296633Y-112245623D01*
X104326871Y-112215385D01*
X104357109Y-112154909D01*
X104357109Y-112003719D01*
X104326871Y-111943242D01*
X104296633Y-111913004D01*
X104236157Y-111882766D01*
X104115204Y-111882766D01*
X104054728Y-111913004D01*
X104024490Y-111943242D01*
X103994252Y-112003719D01*
X130904166Y-109499061D02*
X130692500Y-109196680D01*
X130541309Y-109499061D02*
X130541309Y-108864061D01*
X130783214Y-108864061D01*
X130843690Y-108894300D01*
X130873928Y-108924538D01*
X130904166Y-108985014D01*
X130904166Y-109075728D01*
X130873928Y-109136204D01*
X130843690Y-109166442D01*
X130783214Y-109196680D01*
X130541309Y-109196680D01*
X131146071Y-108924538D02*
X131176309Y-108894300D01*
X131236785Y-108864061D01*
X131387976Y-108864061D01*
X131448452Y-108894300D01*
X131478690Y-108924538D01*
X131508928Y-108985014D01*
X131508928Y-109045490D01*
X131478690Y-109136204D01*
X131115833Y-109499061D01*
X131508928Y-109499061D01*
X101925966Y-121267461D02*
X101714300Y-120965080D01*
X101563109Y-121267461D02*
X101563109Y-120632461D01*
X101805014Y-120632461D01*
X101865490Y-120662700D01*
X101895728Y-120692938D01*
X101925966Y-120753414D01*
X101925966Y-120844128D01*
X101895728Y-120904604D01*
X101865490Y-120934842D01*
X101805014Y-120965080D01*
X101563109Y-120965080D01*
X102288823Y-120904604D02*
X102228347Y-120874366D01*
X102198109Y-120844128D01*
X102167871Y-120783652D01*
X102167871Y-120753414D01*
X102198109Y-120692938D01*
X102228347Y-120662700D01*
X102288823Y-120632461D01*
X102409776Y-120632461D01*
X102470252Y-120662700D01*
X102500490Y-120692938D01*
X102530728Y-120753414D01*
X102530728Y-120783652D01*
X102500490Y-120844128D01*
X102470252Y-120874366D01*
X102409776Y-120904604D01*
X102288823Y-120904604D01*
X102228347Y-120934842D01*
X102198109Y-120965080D01*
X102167871Y-121025557D01*
X102167871Y-121146509D01*
X102198109Y-121206985D01*
X102228347Y-121237223D01*
X102288823Y-121267461D01*
X102409776Y-121267461D01*
X102470252Y-121237223D01*
X102500490Y-121206985D01*
X102530728Y-121146509D01*
X102530728Y-121025557D01*
X102500490Y-120965080D01*
X102470252Y-120934842D01*
X102409776Y-120904604D01*
X150391585Y-102109814D02*
X150421823Y-102140052D01*
X150452061Y-102230766D01*
X150452061Y-102291242D01*
X150421823Y-102381957D01*
X150361347Y-102442433D01*
X150300871Y-102472671D01*
X150179919Y-102502909D01*
X150089204Y-102502909D01*
X149968252Y-102472671D01*
X149907776Y-102442433D01*
X149847300Y-102381957D01*
X149817061Y-102291242D01*
X149817061Y-102230766D01*
X149847300Y-102140052D01*
X149877538Y-102109814D01*
X149877538Y-101867909D02*
X149847300Y-101837671D01*
X149817061Y-101777195D01*
X149817061Y-101626004D01*
X149847300Y-101565528D01*
X149877538Y-101535290D01*
X149938014Y-101505052D01*
X149998490Y-101505052D01*
X150089204Y-101535290D01*
X150452061Y-101898147D01*
X150452061Y-101505052D01*
X149817061Y-101293385D02*
X149817061Y-100900290D01*
X150058966Y-101111957D01*
X150058966Y-101021242D01*
X150089204Y-100960766D01*
X150119442Y-100930528D01*
X150179919Y-100900290D01*
X150331109Y-100900290D01*
X150391585Y-100930528D01*
X150421823Y-100960766D01*
X150452061Y-101021242D01*
X150452061Y-101202671D01*
X150421823Y-101263147D01*
X150391585Y-101293385D01*
X114196585Y-108311985D02*
X114166347Y-108342223D01*
X114075633Y-108372461D01*
X114015157Y-108372461D01*
X113924442Y-108342223D01*
X113863966Y-108281747D01*
X113833728Y-108221271D01*
X113803490Y-108100319D01*
X113803490Y-108009604D01*
X113833728Y-107888652D01*
X113863966Y-107828176D01*
X113924442Y-107767700D01*
X114015157Y-107737461D01*
X114075633Y-107737461D01*
X114166347Y-107767700D01*
X114196585Y-107797938D01*
X114801347Y-108372461D02*
X114438490Y-108372461D01*
X114619919Y-108372461D02*
X114619919Y-107737461D01*
X114559442Y-107828176D01*
X114498966Y-107888652D01*
X114438490Y-107918890D01*
X115194442Y-107737461D02*
X115254919Y-107737461D01*
X115315395Y-107767700D01*
X115345633Y-107797938D01*
X115375871Y-107858414D01*
X115406109Y-107979366D01*
X115406109Y-108130557D01*
X115375871Y-108251509D01*
X115345633Y-108311985D01*
X115315395Y-108342223D01*
X115254919Y-108372461D01*
X115194442Y-108372461D01*
X115133966Y-108342223D01*
X115103728Y-108311985D01*
X115073490Y-108251509D01*
X115043252Y-108130557D01*
X115043252Y-107979366D01*
X115073490Y-107858414D01*
X115103728Y-107797938D01*
X115133966Y-107767700D01*
X115194442Y-107737461D01*
X116492166Y-114214461D02*
X116280500Y-113912080D01*
X116129309Y-114214461D02*
X116129309Y-113579461D01*
X116371214Y-113579461D01*
X116431690Y-113609700D01*
X116461928Y-113639938D01*
X116492166Y-113700414D01*
X116492166Y-113791128D01*
X116461928Y-113851604D01*
X116431690Y-113881842D01*
X116371214Y-113912080D01*
X116129309Y-113912080D01*
X116703833Y-113579461D02*
X117096928Y-113579461D01*
X116885261Y-113821366D01*
X116975976Y-113821366D01*
X117036452Y-113851604D01*
X117066690Y-113881842D01*
X117096928Y-113942319D01*
X117096928Y-114093509D01*
X117066690Y-114153985D01*
X117036452Y-114184223D01*
X116975976Y-114214461D01*
X116794547Y-114214461D01*
X116734071Y-114184223D01*
X116703833Y-114153985D01*
X109370585Y-119635814D02*
X109400823Y-119666052D01*
X109431061Y-119756766D01*
X109431061Y-119817242D01*
X109400823Y-119907957D01*
X109340347Y-119968433D01*
X109279871Y-119998671D01*
X109158919Y-120028909D01*
X109068204Y-120028909D01*
X108947252Y-119998671D01*
X108886776Y-119968433D01*
X108826300Y-119907957D01*
X108796061Y-119817242D01*
X108796061Y-119756766D01*
X108826300Y-119666052D01*
X108856538Y-119635814D01*
X109431061Y-119031052D02*
X109431061Y-119393909D01*
X109431061Y-119212480D02*
X108796061Y-119212480D01*
X108886776Y-119272957D01*
X108947252Y-119333433D01*
X108977490Y-119393909D01*
X109007728Y-118486766D02*
X109431061Y-118486766D01*
X108765823Y-118637957D02*
X109219395Y-118789147D01*
X109219395Y-118396052D01*
X129004785Y-115847585D02*
X128974547Y-115877823D01*
X128883833Y-115908061D01*
X128823357Y-115908061D01*
X128732642Y-115877823D01*
X128672166Y-115817347D01*
X128641928Y-115756871D01*
X128611690Y-115635919D01*
X128611690Y-115545204D01*
X128641928Y-115424252D01*
X128672166Y-115363776D01*
X128732642Y-115303300D01*
X128823357Y-115273061D01*
X128883833Y-115273061D01*
X128974547Y-115303300D01*
X129004785Y-115333538D01*
X129609547Y-115908061D02*
X129246690Y-115908061D01*
X129428119Y-115908061D02*
X129428119Y-115273061D01*
X129367642Y-115363776D01*
X129307166Y-115424252D01*
X129246690Y-115454490D01*
X129911928Y-115908061D02*
X130032880Y-115908061D01*
X130093357Y-115877823D01*
X130123595Y-115847585D01*
X130184071Y-115756871D01*
X130214309Y-115635919D01*
X130214309Y-115394014D01*
X130184071Y-115333538D01*
X130153833Y-115303300D01*
X130093357Y-115273061D01*
X129972404Y-115273061D01*
X129911928Y-115303300D01*
X129881690Y-115333538D01*
X129851452Y-115394014D01*
X129851452Y-115545204D01*
X129881690Y-115605680D01*
X129911928Y-115635919D01*
X129972404Y-115666157D01*
X130093357Y-115666157D01*
X130153833Y-115635919D01*
X130184071Y-115605680D01*
X130214309Y-115545204D01*
X120673585Y-117555433D02*
X120703823Y-117585671D01*
X120734061Y-117676385D01*
X120734061Y-117736861D01*
X120703823Y-117827576D01*
X120643347Y-117888052D01*
X120582871Y-117918290D01*
X120461919Y-117948528D01*
X120371204Y-117948528D01*
X120250252Y-117918290D01*
X120189776Y-117888052D01*
X120129300Y-117827576D01*
X120099061Y-117736861D01*
X120099061Y-117676385D01*
X120129300Y-117585671D01*
X120159538Y-117555433D01*
X120099061Y-116980909D02*
X120099061Y-117283290D01*
X120401442Y-117313528D01*
X120371204Y-117283290D01*
X120340966Y-117222814D01*
X120340966Y-117071623D01*
X120371204Y-117011147D01*
X120401442Y-116980909D01*
X120461919Y-116950671D01*
X120613109Y-116950671D01*
X120673585Y-116980909D01*
X120703823Y-117011147D01*
X120734061Y-117071623D01*
X120734061Y-117222814D01*
X120703823Y-117283290D01*
X120673585Y-117313528D01*
X127402166Y-120607061D02*
X127190500Y-120304680D01*
X127039309Y-120607061D02*
X127039309Y-119972061D01*
X127281214Y-119972061D01*
X127341690Y-120002300D01*
X127371928Y-120032538D01*
X127402166Y-120093014D01*
X127402166Y-120183728D01*
X127371928Y-120244204D01*
X127341690Y-120274442D01*
X127281214Y-120304680D01*
X127039309Y-120304680D01*
X127704547Y-120607061D02*
X127825500Y-120607061D01*
X127885976Y-120576823D01*
X127916214Y-120546585D01*
X127976690Y-120455871D01*
X128006928Y-120334919D01*
X128006928Y-120093014D01*
X127976690Y-120032538D01*
X127946452Y-120002300D01*
X127885976Y-119972061D01*
X127765023Y-119972061D01*
X127704547Y-120002300D01*
X127674309Y-120032538D01*
X127644071Y-120093014D01*
X127644071Y-120244204D01*
X127674309Y-120304680D01*
X127704547Y-120334919D01*
X127765023Y-120365157D01*
X127885976Y-120365157D01*
X127946452Y-120334919D01*
X127976690Y-120304680D01*
X128006928Y-120244204D01*
X100020966Y-116847861D02*
X99809300Y-116545480D01*
X99658109Y-116847861D02*
X99658109Y-116212861D01*
X99900014Y-116212861D01*
X99960490Y-116243100D01*
X99990728Y-116273338D01*
X100020966Y-116333814D01*
X100020966Y-116424528D01*
X99990728Y-116485004D01*
X99960490Y-116515242D01*
X99900014Y-116545480D01*
X99658109Y-116545480D01*
X100232633Y-116212861D02*
X100655966Y-116212861D01*
X100383823Y-116847861D01*
X100607585Y-119762814D02*
X100637823Y-119793052D01*
X100668061Y-119883766D01*
X100668061Y-119944242D01*
X100637823Y-120034957D01*
X100577347Y-120095433D01*
X100516871Y-120125671D01*
X100395919Y-120155909D01*
X100305204Y-120155909D01*
X100184252Y-120125671D01*
X100123776Y-120095433D01*
X100063300Y-120034957D01*
X100033061Y-119944242D01*
X100033061Y-119883766D01*
X100063300Y-119793052D01*
X100093538Y-119762814D01*
X100668061Y-119158052D02*
X100668061Y-119520909D01*
X100668061Y-119339480D02*
X100033061Y-119339480D01*
X100123776Y-119399957D01*
X100184252Y-119460433D01*
X100214490Y-119520909D01*
X100093538Y-118916147D02*
X100063300Y-118885909D01*
X100033061Y-118825433D01*
X100033061Y-118674242D01*
X100063300Y-118613766D01*
X100093538Y-118583528D01*
X100154014Y-118553290D01*
X100214490Y-118553290D01*
X100305204Y-118583528D01*
X100668061Y-118946385D01*
X100668061Y-118553290D01*
X119911585Y-116558785D02*
X119881347Y-116589023D01*
X119790633Y-116619261D01*
X119730157Y-116619261D01*
X119639442Y-116589023D01*
X119578966Y-116528547D01*
X119548728Y-116468071D01*
X119518490Y-116347119D01*
X119518490Y-116256404D01*
X119548728Y-116135452D01*
X119578966Y-116074976D01*
X119639442Y-116014500D01*
X119730157Y-115984261D01*
X119790633Y-115984261D01*
X119881347Y-116014500D01*
X119911585Y-116044738D01*
X120153490Y-116044738D02*
X120183728Y-116014500D01*
X120244204Y-115984261D01*
X120395395Y-115984261D01*
X120455871Y-116014500D01*
X120486109Y-116044738D01*
X120516347Y-116105214D01*
X120516347Y-116165690D01*
X120486109Y-116256404D01*
X120123252Y-116619261D01*
X120516347Y-116619261D01*
X121121109Y-116619261D02*
X120758252Y-116619261D01*
X120939680Y-116619261D02*
X120939680Y-115984261D01*
X120879204Y-116074976D01*
X120818728Y-116135452D01*
X120758252Y-116165690D01*
X100047585Y-108055833D02*
X100077823Y-108086071D01*
X100108061Y-108176785D01*
X100108061Y-108237261D01*
X100077823Y-108327976D01*
X100017347Y-108388452D01*
X99956871Y-108418690D01*
X99835919Y-108448928D01*
X99745204Y-108448928D01*
X99624252Y-108418690D01*
X99563776Y-108388452D01*
X99503300Y-108327976D01*
X99473061Y-108237261D01*
X99473061Y-108176785D01*
X99503300Y-108086071D01*
X99533538Y-108055833D01*
X99473061Y-107844166D02*
X99473061Y-107451071D01*
X99714966Y-107662738D01*
X99714966Y-107572023D01*
X99745204Y-107511547D01*
X99775442Y-107481309D01*
X99835919Y-107451071D01*
X99987109Y-107451071D01*
X100047585Y-107481309D01*
X100077823Y-107511547D01*
X100108061Y-107572023D01*
X100108061Y-107753452D01*
X100077823Y-107813928D01*
X100047585Y-107844166D01*
X110716785Y-115089214D02*
X110747023Y-115119452D01*
X110777261Y-115210166D01*
X110777261Y-115270642D01*
X110747023Y-115361357D01*
X110686547Y-115421833D01*
X110626071Y-115452071D01*
X110505119Y-115482309D01*
X110414404Y-115482309D01*
X110293452Y-115452071D01*
X110232976Y-115421833D01*
X110172500Y-115361357D01*
X110142261Y-115270642D01*
X110142261Y-115210166D01*
X110172500Y-115119452D01*
X110202738Y-115089214D01*
X110202738Y-114847309D02*
X110172500Y-114817071D01*
X110142261Y-114756595D01*
X110142261Y-114605404D01*
X110172500Y-114544928D01*
X110202738Y-114514690D01*
X110263214Y-114484452D01*
X110323690Y-114484452D01*
X110414404Y-114514690D01*
X110777261Y-114877547D01*
X110777261Y-114484452D01*
X110142261Y-114091357D02*
X110142261Y-114030880D01*
X110172500Y-113970404D01*
X110202738Y-113940166D01*
X110263214Y-113909928D01*
X110384166Y-113879690D01*
X110535357Y-113879690D01*
X110656309Y-113909928D01*
X110716785Y-113940166D01*
X110747023Y-113970404D01*
X110777261Y-114030880D01*
X110777261Y-114091357D01*
X110747023Y-114151833D01*
X110716785Y-114182071D01*
X110656309Y-114212309D01*
X110535357Y-114242547D01*
X110384166Y-114242547D01*
X110263214Y-114212309D01*
X110202738Y-114182071D01*
X110172500Y-114151833D01*
X110142261Y-114091357D01*
X115847585Y-111707385D02*
X115817347Y-111737623D01*
X115726633Y-111767861D01*
X115666157Y-111767861D01*
X115575442Y-111737623D01*
X115514966Y-111677147D01*
X115484728Y-111616671D01*
X115454490Y-111495719D01*
X115454490Y-111405004D01*
X115484728Y-111284052D01*
X115514966Y-111223576D01*
X115575442Y-111163100D01*
X115666157Y-111132861D01*
X115726633Y-111132861D01*
X115817347Y-111163100D01*
X115847585Y-111193338D01*
X116452347Y-111767861D02*
X116089490Y-111767861D01*
X116270919Y-111767861D02*
X116270919Y-111132861D01*
X116210442Y-111223576D01*
X116149966Y-111284052D01*
X116089490Y-111314290D01*
X116664014Y-111132861D02*
X117057109Y-111132861D01*
X116845442Y-111374766D01*
X116936157Y-111374766D01*
X116996633Y-111405004D01*
X117026871Y-111435242D01*
X117057109Y-111495719D01*
X117057109Y-111646909D01*
X117026871Y-111707385D01*
X116996633Y-111737623D01*
X116936157Y-111767861D01*
X116754728Y-111767861D01*
X116694252Y-111737623D01*
X116664014Y-111707385D01*
X101417966Y-109608861D02*
X101206300Y-109306480D01*
X101055109Y-109608861D02*
X101055109Y-108973861D01*
X101297014Y-108973861D01*
X101357490Y-109004100D01*
X101387728Y-109034338D01*
X101417966Y-109094814D01*
X101417966Y-109185528D01*
X101387728Y-109246004D01*
X101357490Y-109276242D01*
X101297014Y-109306480D01*
X101055109Y-109306480D01*
X101962252Y-108973861D02*
X101841300Y-108973861D01*
X101780823Y-109004100D01*
X101750585Y-109034338D01*
X101690109Y-109125052D01*
X101659871Y-109246004D01*
X101659871Y-109487909D01*
X101690109Y-109548385D01*
X101720347Y-109578623D01*
X101780823Y-109608861D01*
X101901776Y-109608861D01*
X101962252Y-109578623D01*
X101992490Y-109548385D01*
X102022728Y-109487909D01*
X102022728Y-109336719D01*
X101992490Y-109276242D01*
X101962252Y-109246004D01*
X101901776Y-109215766D01*
X101780823Y-109215766D01*
X101720347Y-109246004D01*
X101690109Y-109276242D01*
X101659871Y-109336719D01*
X136616923Y-112590338D02*
X136556447Y-112560100D01*
X136495971Y-112499623D01*
X136405257Y-112408909D01*
X136344780Y-112378671D01*
X136284304Y-112378671D01*
X136314542Y-112529861D02*
X136254066Y-112499623D01*
X136193590Y-112439147D01*
X136163352Y-112318195D01*
X136163352Y-112106528D01*
X136193590Y-111985576D01*
X136254066Y-111925100D01*
X136314542Y-111894861D01*
X136435495Y-111894861D01*
X136495971Y-111925100D01*
X136556447Y-111985576D01*
X136586685Y-112106528D01*
X136586685Y-112318195D01*
X136556447Y-112439147D01*
X136495971Y-112499623D01*
X136435495Y-112529861D01*
X136314542Y-112529861D01*
X137191447Y-112529861D02*
X136828590Y-112529861D01*
X137010019Y-112529861D02*
X137010019Y-111894861D01*
X136949542Y-111985576D01*
X136889066Y-112046052D01*
X136828590Y-112076290D01*
X128928585Y-92917433D02*
X128958823Y-92947671D01*
X128989061Y-93038385D01*
X128989061Y-93098861D01*
X128958823Y-93189576D01*
X128898347Y-93250052D01*
X128837871Y-93280290D01*
X128716919Y-93310528D01*
X128626204Y-93310528D01*
X128505252Y-93280290D01*
X128444776Y-93250052D01*
X128384300Y-93189576D01*
X128354061Y-93098861D01*
X128354061Y-93038385D01*
X128384300Y-92947671D01*
X128414538Y-92917433D01*
X128989061Y-92312671D02*
X128989061Y-92675528D01*
X128989061Y-92494100D02*
X128354061Y-92494100D01*
X128444776Y-92554576D01*
X128505252Y-92615052D01*
X128535490Y-92675528D01*
X122830166Y-116304785D02*
X122799928Y-116335023D01*
X122709214Y-116365261D01*
X122648738Y-116365261D01*
X122558023Y-116335023D01*
X122497547Y-116274547D01*
X122467309Y-116214071D01*
X122437071Y-116093119D01*
X122437071Y-116002404D01*
X122467309Y-115881452D01*
X122497547Y-115820976D01*
X122558023Y-115760500D01*
X122648738Y-115730261D01*
X122709214Y-115730261D01*
X122799928Y-115760500D01*
X122830166Y-115790738D01*
X123132547Y-116365261D02*
X123253500Y-116365261D01*
X123313976Y-116335023D01*
X123344214Y-116304785D01*
X123404690Y-116214071D01*
X123434928Y-116093119D01*
X123434928Y-115851214D01*
X123404690Y-115790738D01*
X123374452Y-115760500D01*
X123313976Y-115730261D01*
X123193023Y-115730261D01*
X123132547Y-115760500D01*
X123102309Y-115790738D01*
X123072071Y-115851214D01*
X123072071Y-116002404D01*
X123102309Y-116062880D01*
X123132547Y-116093119D01*
X123193023Y-116123357D01*
X123313976Y-116123357D01*
X123374452Y-116093119D01*
X123404690Y-116062880D01*
X123434928Y-116002404D01*
X110828061Y-119587433D02*
X110525680Y-119799100D01*
X110828061Y-119950290D02*
X110193061Y-119950290D01*
X110193061Y-119708385D01*
X110223300Y-119647909D01*
X110253538Y-119617671D01*
X110314014Y-119587433D01*
X110404728Y-119587433D01*
X110465204Y-119617671D01*
X110495442Y-119647909D01*
X110525680Y-119708385D01*
X110525680Y-119950290D01*
X110404728Y-119043147D02*
X110828061Y-119043147D01*
X110162823Y-119194338D02*
X110616395Y-119345528D01*
X110616395Y-118952433D01*
X137107993Y-95257861D02*
X137107993Y-95771909D01*
X137138231Y-95832385D01*
X137168469Y-95862623D01*
X137228945Y-95892861D01*
X137349898Y-95892861D01*
X137410374Y-95862623D01*
X137440612Y-95832385D01*
X137470850Y-95771909D01*
X137470850Y-95257861D01*
X137712755Y-95257861D02*
X138105850Y-95257861D01*
X137894183Y-95499766D01*
X137984898Y-95499766D01*
X138045374Y-95530004D01*
X138075612Y-95560242D01*
X138105850Y-95620719D01*
X138105850Y-95771909D01*
X138075612Y-95832385D01*
X138045374Y-95862623D01*
X137984898Y-95892861D01*
X137803469Y-95892861D01*
X137742993Y-95862623D01*
X137712755Y-95832385D01*
X152169585Y-94749861D02*
X151957919Y-94447480D01*
X151806728Y-94749861D02*
X151806728Y-94114861D01*
X152048633Y-94114861D01*
X152109109Y-94145100D01*
X152139347Y-94175338D01*
X152169585Y-94235814D01*
X152169585Y-94326528D01*
X152139347Y-94387004D01*
X152109109Y-94417242D01*
X152048633Y-94447480D01*
X151806728Y-94447480D01*
X152774347Y-94749861D02*
X152411490Y-94749861D01*
X152592919Y-94749861D02*
X152592919Y-94114861D01*
X152532442Y-94205576D01*
X152471966Y-94266052D01*
X152411490Y-94296290D01*
X153379109Y-94749861D02*
X153016252Y-94749861D01*
X153197680Y-94749861D02*
X153197680Y-94114861D01*
X153137204Y-94205576D01*
X153076728Y-94266052D01*
X153016252Y-94296290D01*
X111783585Y-122381433D02*
X111813823Y-122411671D01*
X111844061Y-122502385D01*
X111844061Y-122562861D01*
X111813823Y-122653576D01*
X111753347Y-122714052D01*
X111692871Y-122744290D01*
X111571919Y-122774528D01*
X111481204Y-122774528D01*
X111360252Y-122744290D01*
X111299776Y-122714052D01*
X111239300Y-122653576D01*
X111209061Y-122562861D01*
X111209061Y-122502385D01*
X111239300Y-122411671D01*
X111269538Y-122381433D01*
X111420728Y-121837147D02*
X111844061Y-121837147D01*
X111178823Y-121988338D02*
X111632395Y-122139528D01*
X111632395Y-121746433D01*
X142959061Y-95251814D02*
X142656680Y-95463480D01*
X142959061Y-95614671D02*
X142324061Y-95614671D01*
X142324061Y-95372766D01*
X142354300Y-95312290D01*
X142384538Y-95282052D01*
X142445014Y-95251814D01*
X142535728Y-95251814D01*
X142596204Y-95282052D01*
X142626442Y-95312290D01*
X142656680Y-95372766D01*
X142656680Y-95614671D01*
X142959061Y-94647052D02*
X142959061Y-95009909D01*
X142959061Y-94828480D02*
X142324061Y-94828480D01*
X142414776Y-94888957D01*
X142475252Y-94949433D01*
X142505490Y-95009909D01*
X142384538Y-94405147D02*
X142354300Y-94374909D01*
X142324061Y-94314433D01*
X142324061Y-94163242D01*
X142354300Y-94102766D01*
X142384538Y-94072528D01*
X142445014Y-94042290D01*
X142505490Y-94042290D01*
X142596204Y-94072528D01*
X142959061Y-94435385D01*
X142959061Y-94042290D01*
X125575785Y-116685785D02*
X125545547Y-116716023D01*
X125454833Y-116746261D01*
X125394357Y-116746261D01*
X125303642Y-116716023D01*
X125243166Y-116655547D01*
X125212928Y-116595071D01*
X125182690Y-116474119D01*
X125182690Y-116383404D01*
X125212928Y-116262452D01*
X125243166Y-116201976D01*
X125303642Y-116141500D01*
X125394357Y-116111261D01*
X125454833Y-116111261D01*
X125545547Y-116141500D01*
X125575785Y-116171738D01*
X126180547Y-116746261D02*
X125817690Y-116746261D01*
X125999119Y-116746261D02*
X125999119Y-116111261D01*
X125938642Y-116201976D01*
X125878166Y-116262452D01*
X125817690Y-116292690D01*
X126392214Y-116111261D02*
X126815547Y-116111261D01*
X126543404Y-116746261D01*
X105907366Y-107856261D02*
X105604985Y-107856261D01*
X105604985Y-107221261D01*
X106451652Y-107856261D02*
X106088795Y-107856261D01*
X106270223Y-107856261D02*
X106270223Y-107221261D01*
X106209747Y-107311976D01*
X106149271Y-107372452D01*
X106088795Y-107402690D01*
X138209261Y-119485833D02*
X137906880Y-119697500D01*
X138209261Y-119848690D02*
X137574261Y-119848690D01*
X137574261Y-119606785D01*
X137604500Y-119546309D01*
X137634738Y-119516071D01*
X137695214Y-119485833D01*
X137785928Y-119485833D01*
X137846404Y-119516071D01*
X137876642Y-119546309D01*
X137906880Y-119606785D01*
X137906880Y-119848690D01*
X138209261Y-118881071D02*
X138209261Y-119243928D01*
X138209261Y-119062500D02*
X137574261Y-119062500D01*
X137664976Y-119122976D01*
X137725452Y-119183452D01*
X137755690Y-119243928D01*
X127960966Y-108338861D02*
X127749300Y-108036480D01*
X127598109Y-108338861D02*
X127598109Y-107703861D01*
X127840014Y-107703861D01*
X127900490Y-107734100D01*
X127930728Y-107764338D01*
X127960966Y-107824814D01*
X127960966Y-107915528D01*
X127930728Y-107976004D01*
X127900490Y-108006242D01*
X127840014Y-108036480D01*
X127598109Y-108036480D01*
X128535490Y-107703861D02*
X128233109Y-107703861D01*
X128202871Y-108006242D01*
X128233109Y-107976004D01*
X128293585Y-107945766D01*
X128444776Y-107945766D01*
X128505252Y-107976004D01*
X128535490Y-108006242D01*
X128565728Y-108066719D01*
X128565728Y-108217909D01*
X128535490Y-108278385D01*
X128505252Y-108308623D01*
X128444776Y-108338861D01*
X128293585Y-108338861D01*
X128233109Y-108308623D01*
X128202871Y-108278385D01*
X129563585Y-112142814D02*
X129593823Y-112173052D01*
X129624061Y-112263766D01*
X129624061Y-112324242D01*
X129593823Y-112414957D01*
X129533347Y-112475433D01*
X129472871Y-112505671D01*
X129351919Y-112535909D01*
X129261204Y-112535909D01*
X129140252Y-112505671D01*
X129079776Y-112475433D01*
X129019300Y-112414957D01*
X128989061Y-112324242D01*
X128989061Y-112263766D01*
X129019300Y-112173052D01*
X129049538Y-112142814D01*
X129624061Y-111538052D02*
X129624061Y-111900909D01*
X129624061Y-111719480D02*
X128989061Y-111719480D01*
X129079776Y-111779957D01*
X129140252Y-111840433D01*
X129170490Y-111900909D01*
X128989061Y-110963528D02*
X128989061Y-111265909D01*
X129291442Y-111296147D01*
X129261204Y-111265909D01*
X129230966Y-111205433D01*
X129230966Y-111054242D01*
X129261204Y-110993766D01*
X129291442Y-110963528D01*
X129351919Y-110933290D01*
X129503109Y-110933290D01*
X129563585Y-110963528D01*
X129593823Y-110993766D01*
X129624061Y-111054242D01*
X129624061Y-111205433D01*
X129593823Y-111265909D01*
X129563585Y-111296147D01*
X130452585Y-113418861D02*
X130240919Y-113116480D01*
X130089728Y-113418861D02*
X130089728Y-112783861D01*
X130331633Y-112783861D01*
X130392109Y-112814100D01*
X130422347Y-112844338D01*
X130452585Y-112904814D01*
X130452585Y-112995528D01*
X130422347Y-113056004D01*
X130392109Y-113086242D01*
X130331633Y-113116480D01*
X130089728Y-113116480D01*
X131057347Y-113418861D02*
X130694490Y-113418861D01*
X130875919Y-113418861D02*
X130875919Y-112783861D01*
X130815442Y-112874576D01*
X130754966Y-112935052D01*
X130694490Y-112965290D01*
X131450442Y-112783861D02*
X131510919Y-112783861D01*
X131571395Y-112814100D01*
X131601633Y-112844338D01*
X131631871Y-112904814D01*
X131662109Y-113025766D01*
X131662109Y-113176957D01*
X131631871Y-113297909D01*
X131601633Y-113358385D01*
X131571395Y-113388623D01*
X131510919Y-113418861D01*
X131450442Y-113418861D01*
X131389966Y-113388623D01*
X131359728Y-113358385D01*
X131329490Y-113297909D01*
X131299252Y-113176957D01*
X131299252Y-113025766D01*
X131329490Y-112904814D01*
X131359728Y-112844338D01*
X131389966Y-112814100D01*
X131450442Y-112783861D01*
X96591966Y-128217385D02*
X96561728Y-128247623D01*
X96471014Y-128277861D01*
X96410538Y-128277861D01*
X96319823Y-128247623D01*
X96259347Y-128187147D01*
X96229109Y-128126671D01*
X96198871Y-128005719D01*
X96198871Y-127915004D01*
X96229109Y-127794052D01*
X96259347Y-127733576D01*
X96319823Y-127673100D01*
X96410538Y-127642861D01*
X96471014Y-127642861D01*
X96561728Y-127673100D01*
X96591966Y-127703338D01*
X96803633Y-127642861D02*
X97226966Y-127642861D01*
X96954823Y-128277861D01*
X114371966Y-110183385D02*
X114341728Y-110213623D01*
X114251014Y-110243861D01*
X114190538Y-110243861D01*
X114099823Y-110213623D01*
X114039347Y-110153147D01*
X114009109Y-110092671D01*
X113978871Y-109971719D01*
X113978871Y-109881004D01*
X114009109Y-109760052D01*
X114039347Y-109699576D01*
X114099823Y-109639100D01*
X114190538Y-109608861D01*
X114251014Y-109608861D01*
X114341728Y-109639100D01*
X114371966Y-109669338D01*
X114916252Y-109608861D02*
X114795300Y-109608861D01*
X114734823Y-109639100D01*
X114704585Y-109669338D01*
X114644109Y-109760052D01*
X114613871Y-109881004D01*
X114613871Y-110122909D01*
X114644109Y-110183385D01*
X114674347Y-110213623D01*
X114734823Y-110243861D01*
X114855776Y-110243861D01*
X114916252Y-110213623D01*
X114946490Y-110183385D01*
X114976728Y-110122909D01*
X114976728Y-109971719D01*
X114946490Y-109911242D01*
X114916252Y-109881004D01*
X114855776Y-109850766D01*
X114734823Y-109850766D01*
X114674347Y-109881004D01*
X114644109Y-109911242D01*
X114613871Y-109971719D01*
X94892585Y-119714433D02*
X94922823Y-119744671D01*
X94953061Y-119835385D01*
X94953061Y-119895861D01*
X94922823Y-119986576D01*
X94862347Y-120047052D01*
X94801871Y-120077290D01*
X94680919Y-120107528D01*
X94590204Y-120107528D01*
X94469252Y-120077290D01*
X94408776Y-120047052D01*
X94348300Y-119986576D01*
X94318061Y-119895861D01*
X94318061Y-119835385D01*
X94348300Y-119744671D01*
X94378538Y-119714433D01*
X94590204Y-119351576D02*
X94559966Y-119412052D01*
X94529728Y-119442290D01*
X94469252Y-119472528D01*
X94439014Y-119472528D01*
X94378538Y-119442290D01*
X94348300Y-119412052D01*
X94318061Y-119351576D01*
X94318061Y-119230623D01*
X94348300Y-119170147D01*
X94378538Y-119139909D01*
X94439014Y-119109671D01*
X94469252Y-119109671D01*
X94529728Y-119139909D01*
X94559966Y-119170147D01*
X94590204Y-119230623D01*
X94590204Y-119351576D01*
X94620442Y-119412052D01*
X94650680Y-119442290D01*
X94711157Y-119472528D01*
X94832109Y-119472528D01*
X94892585Y-119442290D01*
X94922823Y-119412052D01*
X94953061Y-119351576D01*
X94953061Y-119230623D01*
X94922823Y-119170147D01*
X94892585Y-119139909D01*
X94832109Y-119109671D01*
X94711157Y-119109671D01*
X94650680Y-119139909D01*
X94620442Y-119170147D01*
X94590204Y-119230623D01*
X129192261Y-98657833D02*
X129192261Y-98960214D01*
X128557261Y-98960214D01*
X128617738Y-98476404D02*
X128587500Y-98446166D01*
X128557261Y-98385690D01*
X128557261Y-98234500D01*
X128587500Y-98174023D01*
X128617738Y-98143785D01*
X128678214Y-98113547D01*
X128738690Y-98113547D01*
X128829404Y-98143785D01*
X129192261Y-98506642D01*
X129192261Y-98113547D01*
D13*
X119098180Y-107356123D02*
X119098180Y-108384219D01*
X119158657Y-108505171D01*
X119219133Y-108565647D01*
X119340085Y-108626123D01*
X119581990Y-108626123D01*
X119702942Y-108565647D01*
X119763419Y-108505171D01*
X119823895Y-108384219D01*
X119823895Y-107356123D01*
X121093895Y-108626123D02*
X120368180Y-108626123D01*
X120731038Y-108626123D02*
X120731038Y-107356123D01*
X120610085Y-107537552D01*
X120489133Y-107658504D01*
X120368180Y-107718980D01*
D10*
X185022998Y-75692000D02*
G75*
G03*
X180958998Y-75692000I-2032000J-2801947D01*
G01*
X187308998Y-129540000D02*
G75*
G03*
X191372998Y-129540000I2032000J2801947D01*
G01*
X110092998Y-75692000D02*
G75*
G03*
X106028998Y-75692000I-2032000J-2801947D01*
G01*
X192134998Y-128778000D02*
G75*
G03*
X192693798Y-127584200I-2791384J2034288D01*
G01*
X194674998Y-91059000D02*
X192134998Y-88519000D01*
X110092998Y-75692000D02*
X180958998Y-75692000D01*
X108822998Y-129540000D02*
X187308998Y-129540000D01*
X106028998Y-75692000D02*
X92566998Y-75692000D01*
X190483998Y-75692000D02*
X192134998Y-77343000D01*
X108822998Y-129540000D02*
X92566998Y-129540000D01*
X190483998Y-75692000D02*
X185022998Y-75692000D01*
X192693798Y-127584200D02*
X194674998Y-125603000D01*
X192134998Y-88519000D02*
X192134998Y-77343000D01*
X192134998Y-129540000D02*
X192134998Y-128778000D01*
X192134998Y-129540000D02*
X191372998Y-129540000D01*
D14*
X167132000Y-84175600D02*
X167132000Y-90105600D01*
X182372000Y-89855600D02*
X182372000Y-89855600D01*
X167132000Y-90105600D02*
X167132000Y-90105600D01*
X167132000Y-107035600D02*
X171502000Y-107035600D01*
X167132000Y-84175600D02*
X167132000Y-84175600D01*
X167132000Y-84175600D02*
X167132000Y-84175600D01*
X182372000Y-107035600D02*
X178252000Y-107035600D01*
X182372000Y-107035600D02*
X182372000Y-107035600D01*
X182372000Y-89855600D02*
X182372000Y-84175600D01*
X171502000Y-84175600D02*
X167132000Y-84175600D01*
X182372000Y-107035600D02*
X182372000Y-107035600D01*
X167132000Y-107035600D02*
X167132000Y-101105600D01*
X171502000Y-107035600D02*
X167132000Y-107035600D01*
X178252000Y-107035600D02*
X178252000Y-107035600D01*
D15*
X173852000Y-109005600D02*
X173852000Y-109005600D01*
D14*
X182372000Y-107035600D02*
X182372000Y-101355600D01*
X167132000Y-101105600D02*
X167132000Y-107035600D01*
X171502000Y-107035600D02*
X171502000Y-107035600D01*
X182372000Y-84175600D02*
X182372000Y-84175600D01*
X171502000Y-84175600D02*
X171502000Y-84175600D01*
X167132000Y-107035600D02*
X167132000Y-107035600D01*
X167132000Y-84175600D02*
X171502000Y-84175600D01*
D15*
X173852000Y-109005600D02*
X173852000Y-109005600D01*
D14*
X167132000Y-90105600D02*
X167132000Y-84175600D01*
D15*
X173852000Y-108905600D02*
X173852000Y-108905600D01*
D14*
X182372000Y-101355600D02*
X182372000Y-101355600D01*
X178002000Y-84175600D02*
X182372000Y-84175600D01*
X182372000Y-84175600D02*
X182372000Y-89855600D01*
X182372000Y-101355600D02*
X182372000Y-107035600D01*
X178002000Y-84175600D02*
X178002000Y-84175600D01*
X178252000Y-107035600D02*
X182372000Y-107035600D01*
X182372000Y-84175600D02*
X182372000Y-84175600D01*
X182372000Y-84175600D02*
X178002000Y-84175600D01*
X167132000Y-107035600D02*
X167132000Y-107035600D01*
X167132000Y-101105600D02*
X167132000Y-101105600D01*
D15*
X173852000Y-109005600D02*
G75*
G03*
X173852000Y-108905600I0J50000D01*
G01*
X173852000Y-109005600D02*
G75*
G03*
X173852000Y-108905600I0J50000D01*
G01*
X173852000Y-108905600D02*
G75*
G03*
X173852000Y-109005600I0J-50000D01*
G01*
D16*
X119173400Y-130563000D02*
X119173400Y-129823000D01*
X118933400Y-136383000D02*
X118933400Y-130063000D01*
X118933400Y-130063000D02*
X118163400Y-130063000D01*
X114043400Y-130623000D02*
X113273400Y-130623000D01*
X119173400Y-129823000D02*
X118673400Y-129823000D01*
X116583400Y-130063000D02*
X115623400Y-130063000D01*
X118933400Y-136383000D02*
X113273400Y-136383000D01*
X118933400Y-135923000D02*
X113273400Y-135923000D01*
X118933400Y-130623000D02*
X118163400Y-130623000D01*
X113273400Y-136383000D02*
X113273400Y-130063000D01*
X116583400Y-130623000D02*
X115623400Y-130623000D01*
X114043400Y-130063000D02*
X113273400Y-130063000D01*
D15*
X99084600Y-123572000D02*
G75*
G03*
X99084600Y-123572000I-50000J0D01*
G01*
X116061000Y-102559000D02*
X116061000Y-101959000D01*
X115211000Y-101109000D02*
X110761000Y-101109000D01*
X117811000Y-103759000D02*
X117811000Y-103759000D01*
X116061000Y-101959000D02*
X115211000Y-101109000D01*
X115211000Y-106409000D02*
X110761000Y-106409000D01*
X110761000Y-101109000D02*
X110761000Y-102559000D01*
X117711000Y-103759000D02*
X117711000Y-103759000D01*
X117711000Y-103759000D02*
X117711000Y-103759000D01*
X116061000Y-105559000D02*
X115211000Y-106409000D01*
X116061000Y-104959000D02*
X116061000Y-105559000D01*
X110761000Y-106409000D02*
X110761000Y-104959000D01*
X117711000Y-103759000D02*
G75*
G03*
X117811000Y-103759000I50000J0D01*
G01*
X117811000Y-103759000D02*
G75*
G03*
X117711000Y-103759000I-50000J0D01*
G01*
X117711000Y-103759000D02*
G75*
G03*
X117811000Y-103759000I50000J0D01*
G01*
D14*
X101651200Y-115886800D02*
X101651200Y-115886800D01*
X101751200Y-115886800D02*
X101751200Y-115886800D01*
X101751200Y-115886800D02*
G75*
G03*
X101651200Y-115886800I-50000J0D01*
G01*
X101651200Y-115886800D02*
G75*
G03*
X101751200Y-115886800I50000J0D01*
G01*
D16*
X150340000Y-130597600D02*
X149380000Y-130597600D01*
X152930000Y-130537600D02*
X152930000Y-129797600D01*
X152690000Y-135897600D02*
X147030000Y-135897600D01*
X147800000Y-130597600D02*
X147030000Y-130597600D01*
X152690000Y-136357600D02*
X147030000Y-136357600D01*
X150340000Y-130037600D02*
X149380000Y-130037600D01*
X152690000Y-130597600D02*
X151920000Y-130597600D01*
X152930000Y-129797600D02*
X152430000Y-129797600D01*
X152690000Y-130037600D02*
X151920000Y-130037600D01*
X147030000Y-136357600D02*
X147030000Y-130037600D01*
X152690000Y-136357600D02*
X152690000Y-130037600D01*
X147800000Y-130037600D02*
X147030000Y-130037600D01*
X143342800Y-68061600D02*
X127522800Y-68061600D01*
X143342800Y-74381600D02*
X127522800Y-74381600D01*
X143582800Y-67821600D02*
X143082800Y-67821600D01*
X143582800Y-68561600D02*
X143582800Y-67821600D01*
X143342800Y-73921600D02*
X127522800Y-73921600D01*
X143342800Y-68621600D02*
X127522800Y-68621600D01*
X127522800Y-74381600D02*
X127522800Y-68061600D01*
X143342800Y-74381600D02*
X143342800Y-68061600D01*
X94508000Y-83038000D02*
X94508000Y-93158000D01*
X100956000Y-92252000D02*
X100560000Y-91857000D01*
X101222000Y-91986000D02*
X100842000Y-91606000D01*
X103628000Y-93158000D02*
X94508000Y-93158000D01*
X96068000Y-83038000D02*
X96068000Y-93158000D01*
X94968000Y-83038000D02*
X94968000Y-93158000D01*
X98576000Y-89340000D02*
X98180000Y-88945000D01*
X103628000Y-83038000D02*
X103628000Y-93158000D01*
X98294000Y-89591000D02*
X97914000Y-89211000D01*
X94268000Y-82798000D02*
X94268000Y-83198000D01*
X100956000Y-87252000D02*
X100849000Y-87145000D01*
X98287000Y-84050000D02*
X98180000Y-83944000D01*
X98021000Y-84316000D02*
X97914000Y-84210000D01*
X101222000Y-86986000D02*
X101115000Y-86879000D01*
X94908000Y-82798000D02*
X94268000Y-82798000D01*
X103628000Y-83038000D02*
X94508000Y-83038000D01*
X101748000Y-85598000D02*
G75*
G03*
X101748000Y-85598000I-2180000J0D01*
G01*
X101748000Y-90598000D02*
G75*
G03*
X101748000Y-90598000I-2180000J0D01*
G01*
X147487200Y-73866689D02*
X163307200Y-73866689D01*
X163307200Y-68106689D02*
X163307200Y-74426689D01*
X147247200Y-73926689D02*
X147247200Y-74666689D01*
X147487200Y-68106689D02*
X163307200Y-68106689D01*
X147487200Y-68566689D02*
X163307200Y-68566689D01*
X147247200Y-74666689D02*
X147747200Y-74666689D01*
X147487200Y-68106689D02*
X147487200Y-74426689D01*
X147487200Y-74426689D02*
X163307200Y-74426689D01*
X160703200Y-130648400D02*
X159743200Y-130648400D01*
X155623200Y-130088400D02*
X154853200Y-130088400D01*
X163053200Y-130088400D02*
X162283200Y-130088400D01*
X158163200Y-130648400D02*
X157203200Y-130648400D01*
X160703200Y-130088400D02*
X159743200Y-130088400D01*
X163053200Y-135948400D02*
X154853200Y-135948400D01*
X163293200Y-129848400D02*
X162793200Y-129848400D01*
X163053200Y-130648400D02*
X162283200Y-130648400D01*
X154853200Y-136408400D02*
X154853200Y-130088400D01*
X163293200Y-130588400D02*
X163293200Y-129848400D01*
X158163200Y-130088400D02*
X157203200Y-130088400D01*
X163053200Y-136408400D02*
X154853200Y-136408400D01*
X155623200Y-130648400D02*
X154853200Y-130648400D01*
X163053200Y-136408400D02*
X163053200Y-130088400D01*
D15*
X128150200Y-114884200D02*
X127550200Y-114884200D01*
X123174000Y-117341000D02*
X123174000Y-119641000D01*
D16*
X95214000Y-96032000D02*
X95214000Y-106152000D01*
X98540000Y-102585000D02*
X98160000Y-102205000D01*
X95154000Y-95792000D02*
X94514000Y-95792000D01*
X103874000Y-96032000D02*
X103874000Y-106152000D01*
X101202000Y-100246000D02*
X101095000Y-100139000D01*
X94514000Y-95792000D02*
X94514000Y-96192000D01*
X101202000Y-105246000D02*
X100806000Y-104851000D01*
X94754000Y-96032000D02*
X94754000Y-106152000D01*
X103874000Y-106152000D02*
X94754000Y-106152000D01*
X98533000Y-97044000D02*
X98426000Y-96938000D01*
X103874000Y-96032000D02*
X94754000Y-96032000D01*
X101468000Y-104980000D02*
X101088000Y-104600000D01*
X98267000Y-97310000D02*
X98160000Y-97204000D01*
X98822000Y-102334000D02*
X98426000Y-101939000D01*
X96314000Y-96032000D02*
X96314000Y-106152000D01*
X101468000Y-99980000D02*
X101361000Y-99873000D01*
X101994000Y-103592000D02*
G75*
G03*
X101994000Y-103592000I-2180000J0D01*
G01*
X101994000Y-98592000D02*
G75*
G03*
X101994000Y-98592000I-2180000J0D01*
G01*
X134779400Y-83163000D02*
X134039400Y-83163000D01*
X134839400Y-90833000D02*
X134839400Y-91603000D01*
X134039400Y-83163000D02*
X134039400Y-83663000D01*
X134839400Y-83403000D02*
X134839400Y-84173000D01*
X134279400Y-90833000D02*
X134279400Y-91603000D01*
X140599400Y-83403000D02*
X134279400Y-83403000D01*
X134839400Y-88293000D02*
X134839400Y-89253000D01*
X134279400Y-85753000D02*
X134279400Y-86713000D01*
X134279400Y-83403000D02*
X134279400Y-84173000D01*
X140599400Y-91603000D02*
X134279400Y-91603000D01*
X140139400Y-83403000D02*
X140139400Y-91603000D01*
X134279400Y-88293000D02*
X134279400Y-89253000D01*
X140599400Y-83403000D02*
X140599400Y-91603000D01*
X134839400Y-85753000D02*
X134839400Y-86713000D01*
X164916600Y-136408400D02*
X164916600Y-130088400D01*
X175896600Y-129848400D02*
X175396600Y-129848400D01*
X175656600Y-136408400D02*
X164916600Y-136408400D01*
X175656600Y-130088400D02*
X164916600Y-130088400D01*
X175896600Y-130588400D02*
X175896600Y-129848400D01*
X175656600Y-135948400D02*
X164916600Y-135948400D01*
X175656600Y-130648400D02*
X164916600Y-130648400D01*
X175656600Y-136408400D02*
X175656600Y-130088400D01*
X148329000Y-91868400D02*
X149069000Y-91868400D01*
X148829000Y-86738400D02*
X148829000Y-85778400D01*
X142969000Y-91628400D02*
X142969000Y-83428400D01*
X148269000Y-91628400D02*
X148269000Y-90858400D01*
X148269000Y-89278400D02*
X148269000Y-88318400D01*
X142509000Y-83428400D02*
X148829000Y-83428400D01*
X148269000Y-84198400D02*
X148269000Y-83428400D01*
X148829000Y-89278400D02*
X148829000Y-88318400D01*
X142509000Y-91628400D02*
X148829000Y-91628400D01*
X149069000Y-91868400D02*
X149069000Y-91368400D01*
X148269000Y-86738400D02*
X148269000Y-85778400D01*
X148829000Y-84198400D02*
X148829000Y-83428400D01*
X148829000Y-91628400D02*
X148829000Y-90858400D01*
X142509000Y-91628400D02*
X142509000Y-83428400D01*
D15*
X94622800Y-108232400D02*
X94622800Y-116132400D01*
X98922800Y-115532400D02*
X98922800Y-108232400D01*
X109048200Y-115209800D02*
X109648200Y-115209800D01*
D16*
X124380400Y-67770800D02*
X123880400Y-67770800D01*
X124140400Y-74330800D02*
X124140400Y-68010800D01*
X124140400Y-68570800D02*
X108320400Y-68570800D01*
X108320400Y-74330800D02*
X108320400Y-68010800D01*
X124140400Y-68010800D02*
X108320400Y-68010800D01*
X124140400Y-73870800D02*
X108320400Y-73870800D01*
X124380400Y-68510800D02*
X124380400Y-67770800D01*
X124140400Y-74330800D02*
X108320400Y-74330800D01*
D15*
X136922000Y-113094000D02*
X132232000Y-113094000D01*
X132232000Y-123634000D02*
X135382000Y-123634000D01*
X132232000Y-113094000D02*
X132232000Y-123634000D01*
X127322600Y-92439600D02*
X119422600Y-92439600D01*
X120022600Y-96739600D02*
X127322600Y-96739600D01*
X139195603Y-96907200D02*
X145995603Y-96907200D01*
X136920603Y-96937200D02*
X138845603Y-96937200D01*
X145995603Y-107207200D02*
X139195603Y-107207200D01*
X145995603Y-96907200D02*
X145995603Y-107207200D01*
X139195603Y-107207200D02*
X139195603Y-96907200D01*
X150208600Y-97256600D02*
X152508600Y-97256600D01*
X101872000Y-125171200D02*
X101872000Y-125171200D01*
X108822000Y-127821200D02*
X108822000Y-126371200D01*
X103522000Y-123971200D02*
X103522000Y-123371200D01*
X101772000Y-125171200D02*
X101772000Y-125171200D01*
X108822000Y-122521200D02*
X108822000Y-123971200D01*
X104372000Y-122521200D02*
X108822000Y-122521200D01*
X103522000Y-126971200D02*
X104372000Y-127821200D01*
X104372000Y-127821200D02*
X108822000Y-127821200D01*
X103522000Y-123371200D02*
X104372000Y-122521200D01*
X101872000Y-125171200D02*
X101872000Y-125171200D01*
X103522000Y-126371200D02*
X103522000Y-126971200D01*
X101872000Y-125171200D02*
G75*
G03*
X101772000Y-125171200I-50000J0D01*
G01*
X101772000Y-125171200D02*
G75*
G03*
X101872000Y-125171200I50000J0D01*
G01*
X101872000Y-125171200D02*
G75*
G03*
X101772000Y-125171200I-50000J0D01*
G01*
X145719800Y-95993600D02*
X145719800Y-93693600D01*
D17*
X137897000Y-120462000D02*
X137897000Y-120462000D01*
X137947000Y-120462000D02*
X137947000Y-120462000D01*
X137897000Y-120462000D02*
G75*
G03*
X137947000Y-120462000I25000J0D01*
G01*
X137947000Y-120462000D02*
G75*
G03*
X137897000Y-120462000I-25000J0D01*
G01*
D15*
X128570000Y-111133200D02*
X127970000Y-111133200D01*
X95935000Y-123472000D02*
G75*
G03*
X95935000Y-123472000I-50000J0D01*
G01*
X117576000Y-109338200D02*
X117576000Y-110388200D01*
X97359400Y-118505000D02*
X97359400Y-120805000D01*
X120422200Y-105204400D02*
X126872200Y-105204400D01*
X126872200Y-98554400D02*
X120422200Y-98554400D01*
X125647200Y-97779400D02*
X125647200Y-97779400D01*
X125647200Y-97779400D02*
X125647200Y-97779400D01*
X126872200Y-105204400D02*
X126872200Y-98554400D01*
X120422200Y-98554400D02*
X120422200Y-105204400D01*
X125647200Y-97879400D02*
X125647200Y-97879400D01*
X125647200Y-97779400D02*
G75*
G03*
X125647200Y-97879400I0J-50000D01*
G01*
X125647200Y-97879400D02*
G75*
G03*
X125647200Y-97779400I0J50000D01*
G01*
X125647200Y-97779400D02*
G75*
G03*
X125647200Y-97879400I0J-50000D01*
G01*
D14*
X126036000Y-112459200D02*
X126036000Y-112459200D01*
X126136000Y-112459200D02*
X126136000Y-112459200D01*
X126136000Y-112459200D02*
G75*
G03*
X126036000Y-112459200I-50000J0D01*
G01*
X126036000Y-112459200D02*
G75*
G03*
X126136000Y-112459200I50000J0D01*
G01*
M02*
