G04 #@! TF.GenerationSoftware,KiCad,Pcbnew,6.0.2+dfsg-1*
G04 #@! TF.CreationDate,2024-03-01T17:34:32+01:00*
G04 #@! TF.ProjectId,controller_pcb,636f6e74-726f-46c6-9c65-725f7063622e,v01*
G04 #@! TF.SameCoordinates,Original*
G04 #@! TF.FileFunction,Paste,Top*
G04 #@! TF.FilePolarity,Positive*
%FSLAX46Y46*%
G04 Gerber Fmt 4.6, Leading zero omitted, Abs format (unit mm)*
G04 Created by KiCad (PCBNEW 6.0.2+dfsg-1) date 2024-03-01 17:34:32*
%MOMM*%
%LPD*%
G01*
G04 APERTURE LIST*
%ADD10R,5.080000X2.790000*%
%ADD11C,17.780000*%
%ADD12R,1.000000X0.950000*%
%ADD13R,3.000000X1.600000*%
%ADD14R,0.600000X0.250000*%
%ADD15R,0.250000X0.650000*%
%ADD16R,0.250000X0.600000*%
%ADD17R,0.250000X3.400000*%
%ADD18R,0.330000X2.350000*%
%ADD19R,0.250000X0.525000*%
%ADD20R,0.990000X0.810000*%
%ADD21R,0.620000X0.420000*%
%ADD22R,0.810000X0.990000*%
%ADD23R,0.750000X0.600000*%
%ADD24R,0.420000X0.620000*%
%ADD25R,0.940000X0.540000*%
%ADD26R,0.920000X2.820000*%
%ADD27R,0.600000X0.750000*%
%ADD28R,2.450000X2.300000*%
%ADD29R,2.300000X2.450000*%
%ADD30R,1.925000X0.650000*%
%ADD31R,2.700000X1.100000*%
%ADD32R,1.100000X2.700000*%
%ADD33R,1.800000X4.500000*%
%ADD34R,0.500000X0.475000*%
%ADD35R,1.450000X1.150000*%
%ADD36R,0.620000X1.470000*%
%ADD37R,1.450000X5.500000*%
G04 APERTURE END LIST*
D10*
X174752000Y-106590600D03*
X174752000Y-84620600D03*
D11*
X174752000Y-95605600D03*
D12*
X99034600Y-124422000D03*
X99034600Y-126022000D03*
D13*
X115611000Y-103759000D03*
X111211000Y-103759000D03*
D14*
X102451200Y-115886800D03*
X102451200Y-116386800D03*
X102451200Y-116886800D03*
X102451200Y-117386800D03*
D15*
X102811200Y-118011800D03*
D16*
X103311200Y-118036800D03*
D17*
X103771200Y-116636800D03*
X104311200Y-116636800D03*
D18*
X104851200Y-116636800D03*
D17*
X105391200Y-116636800D03*
X105931200Y-116636800D03*
D16*
X106391200Y-118036800D03*
D15*
X106891200Y-118011800D03*
D14*
X107251200Y-117386800D03*
X107251200Y-116886800D03*
X107251200Y-116386800D03*
X107251200Y-115886800D03*
D15*
X106891200Y-115261800D03*
D16*
X106391200Y-115236800D03*
X103311200Y-115236800D03*
D15*
X102811200Y-115261800D03*
D19*
X104851200Y-118074800D03*
X104851200Y-115198800D03*
D20*
X111475200Y-112856400D03*
X111475200Y-111476400D03*
D21*
X136042403Y-101320588D03*
X136042403Y-100220588D03*
D22*
X102836200Y-113076200D03*
X104216200Y-113076200D03*
D23*
X130006000Y-110363000D03*
X131106000Y-110363000D03*
X101507200Y-119964200D03*
X102607200Y-119964200D03*
D21*
X149225000Y-101388000D03*
X149225000Y-100288000D03*
D24*
X116810000Y-108085200D03*
X117910000Y-108085200D03*
D23*
X116556000Y-112657200D03*
X117656000Y-112657200D03*
D21*
X109195800Y-117978400D03*
X109195800Y-116878400D03*
D25*
X127850200Y-115684200D03*
X127850200Y-114084200D03*
D26*
X121634000Y-118491000D03*
X124714000Y-118491000D03*
D23*
X126196000Y-119253000D03*
X127296000Y-119253000D03*
D27*
X100203000Y-114283400D03*
X100203000Y-115383400D03*
D21*
X100304600Y-121860400D03*
X100304600Y-120760400D03*
D22*
X119718000Y-115197200D03*
X121098000Y-115197200D03*
D28*
X96772800Y-114982400D03*
X96772800Y-108782400D03*
D25*
X109348200Y-116009800D03*
X109348200Y-114409800D03*
D24*
X117572000Y-111387200D03*
X118672000Y-111387200D03*
D27*
X101372600Y-111543400D03*
X101372600Y-110443400D03*
D29*
X120572600Y-94589600D03*
X126772600Y-94589600D03*
D24*
X122398000Y-115197200D03*
X123498000Y-115197200D03*
D27*
X110491200Y-117072800D03*
X110491200Y-118172800D03*
D30*
X137883603Y-97612200D03*
X137883603Y-98882200D03*
X137883603Y-100152200D03*
X137883603Y-101422200D03*
X137883603Y-102692200D03*
X137883603Y-103962200D03*
X137883603Y-105232200D03*
X137883603Y-106502200D03*
X147307603Y-106502200D03*
X147307603Y-105232200D03*
X147307603Y-103962200D03*
X147307603Y-102692200D03*
X147307603Y-101422200D03*
X147307603Y-100152200D03*
X147307603Y-98882200D03*
X147307603Y-97612200D03*
D31*
X151358600Y-98756600D03*
X151358600Y-95756600D03*
D13*
X103972000Y-125171200D03*
X108372000Y-125171200D03*
D32*
X147219800Y-94843600D03*
X144219800Y-94843600D03*
D22*
X126250000Y-115298800D03*
X124870000Y-115298800D03*
D33*
X106142200Y-110744000D03*
X109442200Y-110744000D03*
D34*
X137922000Y-120900000D03*
X137922000Y-121924000D03*
D23*
X128578000Y-109101200D03*
X127478000Y-109101200D03*
D25*
X128270000Y-110333200D03*
X128270000Y-111933200D03*
D27*
X129298000Y-114477200D03*
X129298000Y-113377200D03*
D35*
X95885000Y-124322000D03*
X95885000Y-126122000D03*
D36*
X116576000Y-109863200D03*
X118576000Y-109863200D03*
D26*
X95819400Y-119655000D03*
X98899400Y-119655000D03*
D37*
X125647200Y-101879400D03*
X121647200Y-101879400D03*
D14*
X125336000Y-112459200D03*
X125336000Y-111959200D03*
X125336000Y-111459200D03*
X125336000Y-110959200D03*
D15*
X124976000Y-110334200D03*
D16*
X124476000Y-110309200D03*
D17*
X124016000Y-111709200D03*
X123476000Y-111709200D03*
D18*
X122936000Y-111709200D03*
D17*
X122396000Y-111709200D03*
X121856000Y-111709200D03*
D16*
X121396000Y-110309200D03*
D15*
X120896000Y-110334200D03*
D14*
X120536000Y-110959200D03*
X120536000Y-111459200D03*
X120536000Y-111959200D03*
X120536000Y-112459200D03*
D15*
X120896000Y-113084200D03*
D16*
X121396000Y-113109200D03*
X124476000Y-113109200D03*
D15*
X124976000Y-113084200D03*
D19*
X122936000Y-110271200D03*
X122936000Y-113147200D03*
M02*
