G04 #@! TF.GenerationSoftware,KiCad,Pcbnew,6.0.2+dfsg-1*
G04 #@! TF.CreationDate,2024-03-01T17:34:33+01:00*
G04 #@! TF.ProjectId,controller_pcb,636f6e74-726f-46c6-9c65-725f7063622e,v01*
G04 #@! TF.SameCoordinates,Original*
G04 #@! TF.FileFunction,Soldermask,Top*
G04 #@! TF.FilePolarity,Negative*
%FSLAX46Y46*%
G04 Gerber Fmt 4.6, Leading zero omitted, Abs format (unit mm)*
G04 Created by KiCad (PCBNEW 6.0.2+dfsg-1) date 2024-03-01 17:34:33*
%MOMM*%
%LPD*%
G01*
G04 APERTURE LIST*
%ADD10O,1.727200X1.727200*%
%ADD11R,1.727200X1.727200*%
%ADD12C,3.200000*%
%ADD13R,5.080000X2.790000*%
%ADD14C,17.780000*%
%ADD15C,2.200000*%
%ADD16R,2.200000X2.200000*%
%ADD17C,1.100000*%
%ADD18R,1.000000X0.950000*%
%ADD19R,3.000000X1.600000*%
%ADD20R,0.600000X0.250000*%
%ADD21R,0.250000X0.650000*%
%ADD22R,0.250000X0.600000*%
%ADD23R,0.250000X3.400000*%
%ADD24R,0.330000X2.350000*%
%ADD25R,0.250000X0.525000*%
%ADD26R,0.990000X0.810000*%
%ADD27R,0.620000X0.420000*%
%ADD28R,0.810000X0.990000*%
%ADD29R,0.750000X0.600000*%
%ADD30R,2.600000X2.600000*%
%ADD31C,2.600000*%
%ADD32R,0.420000X0.620000*%
%ADD33R,0.940000X0.540000*%
%ADD34R,0.920000X2.820000*%
%ADD35R,0.600000X0.750000*%
%ADD36R,2.450000X2.300000*%
%ADD37R,1.920000X1.920000*%
%ADD38C,1.920000*%
%ADD39R,2.300000X2.450000*%
%ADD40R,1.925000X0.650000*%
%ADD41R,2.700000X1.100000*%
%ADD42R,1.100000X2.700000*%
%ADD43R,1.800000X4.500000*%
%ADD44R,0.500000X0.475000*%
%ADD45R,1.450000X1.150000*%
%ADD46R,0.620000X1.470000*%
%ADD47R,1.450000X5.500000*%
G04 APERTURE END LIST*
D10*
X138540998Y-126746000D03*
X114156998Y-78486000D03*
X111616998Y-78486000D03*
X156447998Y-101346000D03*
X156447998Y-103886000D03*
X125840998Y-126746000D03*
X158987998Y-101346000D03*
X156447998Y-98806000D03*
X123300998Y-126746000D03*
D11*
X189340998Y-121666000D03*
X186800998Y-121666000D03*
X158987998Y-103886000D03*
X136000998Y-126746000D03*
X133460998Y-126746000D03*
X119236998Y-78486000D03*
D10*
X189340998Y-119126000D03*
X186800998Y-119126000D03*
X189340998Y-116586000D03*
X186800998Y-116586000D03*
X189340998Y-114046000D03*
X186800998Y-114046000D03*
X189340998Y-111506000D03*
X186800998Y-111506000D03*
X189340998Y-108966000D03*
X186800998Y-108966000D03*
X189340998Y-106426000D03*
X186800998Y-106426000D03*
X189340998Y-103886000D03*
X186800998Y-103886000D03*
X189340998Y-101346000D03*
X186800998Y-101346000D03*
X189340998Y-98806000D03*
X186800998Y-98806000D03*
X189340998Y-96266000D03*
X186800998Y-96266000D03*
X189340998Y-93726000D03*
X186800998Y-93726000D03*
X189340998Y-91186000D03*
X186800998Y-91186000D03*
X189340998Y-88646000D03*
X186800998Y-88646000D03*
X189340998Y-86106000D03*
X186800998Y-86106000D03*
X189340998Y-83566000D03*
X186800998Y-83566000D03*
X189340998Y-81026000D03*
X186800998Y-81026000D03*
X179180998Y-78486000D03*
X176640998Y-78486000D03*
X174100998Y-78486000D03*
X171560998Y-78486000D03*
X169020998Y-78486000D03*
X166480998Y-78486000D03*
X163940998Y-78486000D03*
X161400998Y-78486000D03*
X121776998Y-78486000D03*
X124316998Y-78486000D03*
X126856998Y-78486000D03*
X129396998Y-78486000D03*
X131936998Y-78486000D03*
X134476998Y-78486000D03*
X138540998Y-78486000D03*
X141080998Y-78486000D03*
X143620998Y-78486000D03*
X146160998Y-78486000D03*
X148700998Y-78486000D03*
X151240998Y-78486000D03*
X153780998Y-78486000D03*
X156320998Y-78486000D03*
X116696998Y-78486000D03*
X184260998Y-126746000D03*
X181720998Y-126746000D03*
X179180998Y-126746000D03*
X176640998Y-126746000D03*
X174100998Y-126746000D03*
X171560998Y-126746000D03*
X169020998Y-126746000D03*
X166480998Y-126746000D03*
X161400998Y-126746000D03*
X158860998Y-126746000D03*
X156320998Y-126746000D03*
X153780998Y-126746000D03*
X151240998Y-126746000D03*
X148700998Y-126746000D03*
X146160998Y-126746000D03*
X143620998Y-126746000D03*
X189340998Y-78486000D03*
X186800998Y-78486000D03*
X158987998Y-98806000D03*
X130920998Y-126746000D03*
X128380998Y-126746000D03*
D12*
X108060998Y-78486000D03*
X189340998Y-126746000D03*
X182990998Y-78486000D03*
D10*
X120760998Y-126746000D03*
D13*
X174752000Y-106590600D03*
X174752000Y-84620600D03*
D14*
X174752000Y-95605600D03*
D15*
X114833400Y-133223000D03*
D16*
X117373400Y-133223000D03*
D17*
X114833400Y-130683000D03*
X117373400Y-130683000D03*
D18*
X99034600Y-124422000D03*
X99034600Y-126022000D03*
D19*
X115611000Y-103759000D03*
X111211000Y-103759000D03*
D20*
X102451200Y-115886800D03*
X102451200Y-116386800D03*
X102451200Y-116886800D03*
X102451200Y-117386800D03*
D21*
X102811200Y-118011800D03*
D22*
X103311200Y-118036800D03*
D23*
X103771200Y-116636800D03*
X104311200Y-116636800D03*
D24*
X104851200Y-116636800D03*
D23*
X105391200Y-116636800D03*
X105931200Y-116636800D03*
D22*
X106391200Y-118036800D03*
D21*
X106891200Y-118011800D03*
D20*
X107251200Y-117386800D03*
X107251200Y-116886800D03*
X107251200Y-116386800D03*
X107251200Y-115886800D03*
D21*
X106891200Y-115261800D03*
D22*
X106391200Y-115236800D03*
X103311200Y-115236800D03*
D21*
X102811200Y-115261800D03*
D25*
X104851200Y-118074800D03*
X104851200Y-115198800D03*
D26*
X111475200Y-112856400D03*
X111475200Y-111476400D03*
D27*
X136042403Y-101320588D03*
X136042403Y-100220588D03*
D17*
X148590000Y-130657600D03*
X151130000Y-130657600D03*
D16*
X151130000Y-133197600D03*
D15*
X148590000Y-133197600D03*
D28*
X102836200Y-113076200D03*
X104216200Y-113076200D03*
D16*
X141782800Y-71221600D03*
D15*
X139242800Y-71221600D03*
X136702800Y-71221600D03*
X134162800Y-71221600D03*
X131622800Y-71221600D03*
X129082800Y-71221600D03*
D29*
X130006000Y-110363000D03*
X131106000Y-110363000D03*
X101507200Y-119964200D03*
X102607200Y-119964200D03*
D27*
X149225000Y-101388000D03*
X149225000Y-100288000D03*
D30*
X99568000Y-85598000D03*
D31*
X99568000Y-90598000D03*
D32*
X116810000Y-108085200D03*
X117910000Y-108085200D03*
D29*
X116556000Y-112657200D03*
X117656000Y-112657200D03*
D15*
X161747200Y-71266689D03*
X159207200Y-71266689D03*
X156667200Y-71266689D03*
X154127200Y-71266689D03*
X151587200Y-71266689D03*
D16*
X149047200Y-71266689D03*
D27*
X109195800Y-117978400D03*
X109195800Y-116878400D03*
D17*
X158953200Y-130708400D03*
X161493200Y-130708400D03*
X156413200Y-130708400D03*
D16*
X161493200Y-133248400D03*
D15*
X158953200Y-133248400D03*
X156413200Y-133248400D03*
D33*
X127850200Y-115684200D03*
X127850200Y-114084200D03*
D34*
X121634000Y-118491000D03*
X124714000Y-118491000D03*
D29*
X126196000Y-119253000D03*
X127296000Y-119253000D03*
D30*
X99814000Y-98592000D03*
D31*
X99814000Y-103592000D03*
D17*
X134899400Y-90043000D03*
X134899400Y-84963000D03*
X134899400Y-87503000D03*
D16*
X137439400Y-84963000D03*
D15*
X137439400Y-87503000D03*
X137439400Y-90043000D03*
D16*
X174096600Y-133248400D03*
D15*
X171556600Y-133248400D03*
X169016600Y-133248400D03*
X166476600Y-133248400D03*
D17*
X148209000Y-90068400D03*
X148209000Y-84988400D03*
X148209000Y-87528400D03*
D16*
X145669000Y-90068400D03*
D15*
X145669000Y-87528400D03*
X145669000Y-84988400D03*
D35*
X100203000Y-114283400D03*
X100203000Y-115383400D03*
D27*
X100304600Y-121860400D03*
X100304600Y-120760400D03*
D28*
X119718000Y-115197200D03*
X121098000Y-115197200D03*
D36*
X96772800Y-114982400D03*
X96772800Y-108782400D03*
D33*
X109348200Y-116009800D03*
X109348200Y-114409800D03*
D16*
X122580400Y-71170800D03*
D15*
X120040400Y-71170800D03*
X117500400Y-71170800D03*
X114960400Y-71170800D03*
X112420400Y-71170800D03*
X109880400Y-71170800D03*
D32*
X117572000Y-111387200D03*
X118672000Y-111387200D03*
D35*
X101372600Y-111543400D03*
X101372600Y-110443400D03*
D37*
X135382000Y-120904000D03*
D38*
X135382000Y-118364000D03*
X135382000Y-115824000D03*
D39*
X120572600Y-94589600D03*
X126772600Y-94589600D03*
D32*
X122398000Y-115197200D03*
X123498000Y-115197200D03*
D35*
X110491200Y-117072800D03*
X110491200Y-118172800D03*
D40*
X137883603Y-97612200D03*
X137883603Y-98882200D03*
X137883603Y-100152200D03*
X137883603Y-101422200D03*
X137883603Y-102692200D03*
X137883603Y-103962200D03*
X137883603Y-105232200D03*
X137883603Y-106502200D03*
X147307603Y-106502200D03*
X147307603Y-105232200D03*
X147307603Y-103962200D03*
X147307603Y-102692200D03*
X147307603Y-101422200D03*
X147307603Y-100152200D03*
X147307603Y-98882200D03*
X147307603Y-97612200D03*
D41*
X151358600Y-98756600D03*
X151358600Y-95756600D03*
D19*
X103972000Y-125171200D03*
X108372000Y-125171200D03*
D42*
X147219800Y-94843600D03*
X144219800Y-94843600D03*
D28*
X126250000Y-115298800D03*
X124870000Y-115298800D03*
D43*
X106142200Y-110744000D03*
X109442200Y-110744000D03*
D44*
X137922000Y-120900000D03*
X137922000Y-121924000D03*
D29*
X128578000Y-109101200D03*
X127478000Y-109101200D03*
D33*
X128270000Y-110333200D03*
X128270000Y-111933200D03*
D35*
X129298000Y-114477200D03*
X129298000Y-113377200D03*
D45*
X95885000Y-124322000D03*
X95885000Y-126122000D03*
D46*
X116576000Y-109863200D03*
X118576000Y-109863200D03*
D34*
X95819400Y-119655000D03*
X98899400Y-119655000D03*
D47*
X125647200Y-101879400D03*
X121647200Y-101879400D03*
D20*
X125336000Y-112459200D03*
X125336000Y-111959200D03*
X125336000Y-111459200D03*
X125336000Y-110959200D03*
D21*
X124976000Y-110334200D03*
D22*
X124476000Y-110309200D03*
D23*
X124016000Y-111709200D03*
X123476000Y-111709200D03*
D24*
X122936000Y-111709200D03*
D23*
X122396000Y-111709200D03*
X121856000Y-111709200D03*
D22*
X121396000Y-110309200D03*
D21*
X120896000Y-110334200D03*
D20*
X120536000Y-110959200D03*
X120536000Y-111459200D03*
X120536000Y-111959200D03*
X120536000Y-112459200D03*
D21*
X120896000Y-113084200D03*
D22*
X121396000Y-113109200D03*
X124476000Y-113109200D03*
D21*
X124976000Y-113084200D03*
D25*
X122936000Y-110271200D03*
X122936000Y-113147200D03*
M02*
